<svg width="1599" height="1568" viewBox="0 0 1599 1568" fill="none" xmlns="http://www.w3.org/2000/svg">
<g opacity="0.1">
<mask id="path-1-inside-1_2836_2298" fill="white">
<path d="M62.4316 985.212C-126.705 855.849 -253.09 688.117 -277.31 455.265L-275.108 459.869C-275.108 461.623 -273.788 463.378 -273.347 464.912C-242.26 561.979 -184.158 648.272 -105.788 713.77C-55.8883 755.686 6.66229 779.767 71.8994 782.179C84.6699 782.179 97.2198 784.152 109.99 785.029C129.373 785.977 147.787 793.747 161.953 806.955C188.945 832.742 218.959 855.195 251.347 873.828C280.439 891.427 314.717 898.547 348.448 894C356.814 893.639 364.904 890.91 371.768 886.133C378.631 881.357 383.985 874.73 387.201 867.031C387.201 865.058 390.283 863.961 392.044 862.426H393.806C427.053 852.341 437.842 836.117 430.796 801.912C425.348 775.51 415.92 750.081 402.833 726.487C390.326 706.065 382.786 683.014 380.815 659.175C381.264 647.255 382.588 635.383 384.778 623.655C388.741 592.301 392.485 561.166 396.668 530.032C399.061 512.883 396.303 495.413 388.742 479.822C382.797 467.543 376.191 455.703 369.805 443.644C363.217 431.28 360.677 417.173 362.54 403.3C367.097 375.83 366.124 347.732 359.678 320.64C356.968 306.442 349.135 293.721 337.657 284.876C326.179 276.03 311.848 271.673 297.366 272.623C274.623 273.053 251.948 275.252 229.549 279.2C221.704 281.259 213.442 281.121 205.671 278.8C197.9 276.479 190.924 272.064 185.513 266.045C160.553 242.133 139.526 214.46 123.202 184.041C79.1656 96.3381 135.311 30.5618 196.522 11.2671C234.76 -0.173152 275.086 -2.94633 314.541 3.15333C391.357 14.5134 466.484 35.2061 538.245 64.7662C595.296 87.368 654.24 104.903 714.391 117.168C744.556 122.649 774.942 126.377 805.106 130.981C922.023 148.303 1037.62 170.228 1146.39 218.685C1292.41 283.535 1410.93 397.37 1481.29 540.336C1526.65 629.696 1558.55 725.222 1575.97 823.838C1594.51 922.764 1601.89 1023.44 1597.98 1124C1595.78 1179.47 1592.48 1234.95 1586.53 1290.2C1576.77 1380.95 1559.69 1470.77 1535.45 1558.79C1534.13 1563.83 1533.03 1567.56 1525.76 1567.56H1150.79C1155.74 1544.73 1165.5 1523.21 1179.42 1504.42C1200.69 1476.89 1227.84 1454.42 1258.9 1438.64C1274.98 1429.43 1291.49 1421.32 1308.44 1412.55C1308.44 1411.23 1308.44 1409.92 1308.44 1408.6C1274.12 1332 1222.33 1264.43 1157.18 1211.27C1118.42 1182.65 1074.78 1161.25 1028.37 1148.12C967.277 1128.81 904.677 1114.58 841.217 1105.58C740.133 1090.5 638.035 1083.17 535.824 1083.66H528.998L536.484 1075.77C601.46 1009.19 657.42 934.452 702.942 853.437C720.253 822.641 733.782 789.882 743.235 755.867C753.411 713.393 752.654 669.048 741.034 626.943C732.801 594.518 720.599 563.222 704.703 533.759C703.024 531.301 701.828 528.548 701.181 525.646C704.924 554.369 711.089 583.311 711.97 613.349C713.778 681.952 694.579 749.479 656.924 806.955C589.197 913.191 515.693 1015.66 436.742 1113.92C314.981 1267.4 186.834 1417.15 54.504 1562.3C53.1766 1563.83 51.5602 1565.08 49.7467 1565.98C47.9331 1566.88 45.9584 1567.42 43.9357 1567.56H-373.31C-374.613 1545.88 -369.889 1524.26 -359.658 1505.07C-349.295 1485.09 -333.302 1468.56 -313.64 1457.49C-281.664 1438.29 -245.779 1426.45 -208.614 1422.85C-201.348 1422.85 -194.081 1422.85 -186.595 1420.66C-182.961 1419.34 -179.917 1416.77 -178.008 1413.42C-144.1 1353.78 -110.632 1293.93 -76.9442 1234.29L58.908 993.105C60.2291 990.474 61.7704 987.843 63.0915 985.651"/>
<path d="M-291.622 555.246C-285.457 578.488 -280.393 599.098 -274.008 621.024C-246.071 710.026 -197.928 791.427 -133.311 858.918C-122.082 870.758 -111.293 882.598 -98.9627 893.999C-94.9994 897.946 -94.7792 900.358 -98.9627 905.182C-139.741 965.709 -186.028 1022.37 -237.237 1074.45C-253.804 1090.73 -263.224 1112.88 -263.439 1136.06C-263.142 1168.1 -259.75 1200.04 -253.311 1231.44C-250.145 1252.88 -248.087 1274.47 -247.146 1296.12C-246.577 1305.43 -248.835 1314.7 -253.625 1322.71C-258.416 1330.73 -265.518 1337.12 -274.008 1341.07C-291.627 1350.52 -311.392 1355.31 -331.404 1354.96C-351.417 1354.62 -371.004 1349.15 -388.283 1339.09C-415.11 1324.78 -438.591 1304.97 -457.186 1280.97C-475.78 1256.98 -489.067 1229.34 -496.172 1199.86C-513.276 1135.19 -513.276 1067.21 -496.172 1002.53C-482.996 937.704 -462.231 874.638 -434.301 814.628C-420.649 786.782 -403.916 760.252 -388.943 733.064L-335.659 639.66L-290.522 556.123"/>
<path d="M487.824 1567.56C496.19 1517.79 518.429 1478.54 567.309 1459.69C589.327 1451.35 612.887 1446.31 635.786 1439.51C637.229 1439.09 638.575 1438.39 639.746 1437.45C640.917 1436.51 641.891 1435.35 642.611 1434.03C666.664 1378.3 681.534 1319.07 686.648 1258.63C687.969 1229.68 687.969 1200.74 688.409 1170.92V1157.77C806.427 1160.18 923.124 1165.22 1032.78 1222.01C1020.67 1252.27 1010.76 1282.09 996.885 1311.25C962.865 1383.1 920.043 1450.49 869.399 1511.87C855.748 1529.19 841.656 1546.29 827.344 1563.18C824.762 1565.84 821.344 1567.54 817.656 1568H487.824"/>
<path d="M94.3578 337.961C82.2479 340.373 67.4955 343.004 52.9634 346.512C31.7532 350.698 12.0374 360.413 -4.17053 374.665C-20.3784 388.917 -32.4979 407.197 -39.293 427.638C-44.5774 442.548 -50.303 457.019 -55.3672 471.49C-65.936 439.259 -78.4862 407.247 -86.8531 373.92C-89.5934 366.642 -90.7413 358.865 -90.2202 351.109C-89.6992 343.354 -87.5209 335.798 -83.8314 328.948C-80.1419 322.098 -75.0262 316.111 -68.8262 311.389C-62.6263 306.666 -55.485 303.318 -47.8804 301.565C-34.3788 298.718 -20.4285 298.718 -6.92685 301.565C8.73102 305.715 24.0431 311.066 38.8715 317.57C57.8072 324.367 76.7433 331.603 94.3578 338.181"/>
<path d="M227.568 637.249C217.44 627.821 209.513 619.489 200.705 612.472C195.326 608.293 189.199 605.169 182.65 603.264C173.182 599.975 163.054 598.878 153.806 595.37C148.963 593.124 144.639 589.906 141.105 585.916C137.571 581.927 134.904 577.252 133.27 572.187C131.637 567.122 131.073 561.775 131.613 556.483C132.154 551.19 133.788 546.067 136.412 541.433C138.582 539.519 141.142 538.096 143.917 537.263C146.692 536.43 149.615 536.207 152.485 536.609C165.45 538.72 177.755 543.773 188.445 551.377C199.135 558.981 207.925 568.932 214.136 580.46C224.096 597.833 228.764 617.717 227.568 637.686"/>
</mask>
<path d="M-277.31 455.265L-275.506 454.402L-279.3 455.472L-277.31 455.265ZM-275.108 459.869H-273.108V459.415L-273.304 459.006L-275.108 459.869ZM-273.347 464.912L-275.27 465.464L-275.261 465.493L-275.252 465.522L-273.347 464.912ZM-105.788 713.77L-104.502 712.239L-104.505 712.235L-105.788 713.77ZM71.8994 782.179L71.8254 784.177L71.8624 784.179H71.8994V782.179ZM109.99 785.029L109.853 787.024L109.873 787.026L109.893 787.027L109.99 785.029ZM161.953 806.955L163.335 805.509L163.326 805.5L163.317 805.492L161.953 806.955ZM251.347 873.828L252.382 872.117L252.364 872.106L252.344 872.095L251.347 873.828ZM348.448 894L348.362 892.002L348.271 892.005L348.181 892.018L348.448 894ZM387.201 867.031L389.046 867.802L389.201 867.432V867.031H387.201ZM392.044 862.426V860.426H391.295L390.73 860.919L392.044 862.426ZM393.806 862.426V864.426H394.103L394.386 864.34L393.806 862.426ZM430.796 801.912L432.755 801.509L432.755 801.508L430.796 801.912ZM402.833 726.487L404.582 725.517L404.561 725.48L404.538 725.443L402.833 726.487ZM380.815 659.175L378.816 659.1L378.811 659.22L378.821 659.34L380.815 659.175ZM384.778 623.655L386.744 624.022L386.754 623.964L386.762 623.906L384.778 623.655ZM396.668 530.032L394.688 529.755L394.686 529.765L396.668 530.032ZM388.742 479.822L386.942 480.693L386.943 480.695L388.742 479.822ZM369.805 443.644L371.573 442.708L371.57 442.703L369.805 443.644ZM362.54 403.3L360.567 402.972L360.562 403.003L360.558 403.033L362.54 403.3ZM359.678 320.64L357.713 321.015L357.722 321.059L357.732 321.103L359.678 320.64ZM297.366 272.623L297.404 274.622L297.45 274.621L297.497 274.618L297.366 272.623ZM229.549 279.2L229.202 277.23L229.121 277.245L229.042 277.266L229.549 279.2ZM185.513 266.045L187 264.708L186.95 264.653L186.896 264.601L185.513 266.045ZM123.202 184.041L121.415 184.939L121.427 184.963L121.44 184.987L123.202 184.041ZM196.522 11.2671L195.949 9.35104L195.935 9.35523L195.921 9.35964L196.522 11.2671ZM314.541 3.15333L314.235 5.12989L314.248 5.13181L314.541 3.15333ZM538.245 64.7662L537.484 66.6154L537.496 66.6206L537.509 66.6256L538.245 64.7662ZM714.391 117.168L713.992 119.128L714.013 119.132L714.034 119.136L714.391 117.168ZM805.106 130.981L804.805 132.958L804.813 132.96L805.106 130.981ZM1146.39 218.685L1145.58 220.511L1145.58 220.512L1146.39 218.685ZM1481.29 540.336L1479.49 541.219L1479.5 541.23L1479.5 541.241L1481.29 540.336ZM1575.97 823.838L1574 824.186L1574 824.196L1574 824.207L1575.97 823.838ZM1597.98 1124L1599.98 1124.08V1124.08L1597.98 1124ZM1586.53 1290.2L1584.55 1289.99L1586.53 1290.2ZM1535.45 1558.79L1533.52 1558.26L1533.52 1558.27L1533.52 1558.28L1535.45 1558.79ZM1150.79 1567.56L1148.84 1567.14L1148.31 1569.56H1150.79V1567.56ZM1179.42 1504.42L1177.83 1503.19L1177.82 1503.21L1177.81 1503.23L1179.42 1504.42ZM1258.9 1438.64L1259.81 1440.42L1259.85 1440.4L1259.9 1440.37L1258.9 1438.64ZM1308.44 1412.55L1309.36 1414.32L1310.44 1413.76V1412.55H1308.44ZM1308.44 1408.6H1310.44V1408.17L1310.27 1407.78L1308.44 1408.6ZM1157.18 1211.27L1158.44 1209.72L1158.4 1209.69L1158.37 1209.66L1157.18 1211.27ZM1028.37 1148.12L1027.77 1150.03L1027.8 1150.04L1027.83 1150.05L1028.37 1148.12ZM841.217 1105.58L840.922 1107.56L840.929 1107.56L840.936 1107.56L841.217 1105.58ZM535.824 1083.66V1085.66L535.833 1085.66L535.824 1083.66ZM528.998 1083.66L527.547 1082.28L524.345 1085.66H528.998V1083.66ZM536.484 1075.77L535.052 1074.37L535.042 1074.38L535.032 1074.39L536.484 1075.77ZM702.942 853.437L701.198 852.457L701.198 852.458L702.942 853.437ZM743.235 755.867L745.162 756.403L745.172 756.368L745.18 756.333L743.235 755.867ZM741.034 626.943L739.095 627.435L739.101 627.455L739.106 627.475L741.034 626.943ZM704.703 533.759L706.464 532.809L706.414 532.717L706.354 532.63L704.703 533.759ZM701.181 525.646L703.133 525.211L699.198 525.905L701.181 525.646ZM711.97 613.349L713.969 613.297L713.969 613.291L711.97 613.349ZM656.924 806.955L655.251 805.859L655.244 805.869L655.238 805.88L656.924 806.955ZM436.742 1113.92L435.183 1112.66L435.175 1112.67L436.742 1113.92ZM54.504 1562.3L53.0261 1560.95L53.0103 1560.97L52.9949 1560.99L54.504 1562.3ZM43.9357 1567.56V1569.56H44.0057L44.0755 1569.56L43.9357 1567.56ZM-373.31 1567.56L-375.306 1567.68L-375.193 1569.56H-373.31V1567.56ZM-359.658 1505.07L-357.894 1506.01L-357.888 1506L-357.883 1505.99L-359.658 1505.07ZM-313.64 1457.49L-312.66 1459.24L-312.635 1459.22L-312.611 1459.21L-313.64 1457.49ZM-208.614 1422.85V1420.85H-208.71L-208.807 1420.86L-208.614 1422.85ZM-186.595 1420.66L-186.033 1422.58L-185.972 1422.56L-185.912 1422.54L-186.595 1420.66ZM-178.008 1413.42L-176.27 1414.41L-176.269 1414.41L-178.008 1413.42ZM-76.9442 1234.29L-75.2029 1235.27L-75.2017 1235.27L-76.9442 1234.29ZM58.908 993.105L60.6505 994.086L60.6739 994.045L60.6953 994.002L58.908 993.105ZM-274.008 621.024L-275.928 621.583L-275.922 621.603L-275.916 621.623L-274.008 621.024ZM-133.311 858.918L-131.86 857.542L-131.866 857.535L-133.311 858.918ZM-98.9627 893.999L-97.5515 892.582L-97.5777 892.556L-97.6049 892.531L-98.9627 893.999ZM-98.9627 905.182L-100.474 903.871L-100.553 903.963L-100.621 904.064L-98.9627 905.182ZM-237.237 1074.45L-235.835 1075.88L-235.823 1075.86L-235.811 1075.85L-237.237 1074.45ZM-263.439 1136.06L-265.439 1136.04L-265.439 1136.06L-265.439 1136.08L-263.439 1136.06ZM-253.311 1231.44L-251.332 1231.15L-251.34 1231.09L-251.352 1231.04L-253.311 1231.44ZM-247.146 1296.12L-249.144 1296.21L-249.143 1296.22L-249.142 1296.24L-247.146 1296.12ZM-253.625 1322.71L-251.908 1323.74L-253.625 1322.71ZM-274.008 1341.07L-274.85 1339.25L-274.903 1339.28L-274.954 1339.3L-274.008 1341.07ZM-388.283 1339.09L-387.276 1337.37L-387.308 1337.35L-387.341 1337.33L-388.283 1339.09ZM-496.172 1199.86L-494.228 1199.4L-494.233 1199.37L-494.238 1199.35L-496.172 1199.86ZM-496.172 1002.53L-494.238 1003.04L-494.224 1002.99L-494.212 1002.93L-496.172 1002.53ZM-434.301 814.628L-436.097 813.747L-436.105 813.766L-436.114 813.784L-434.301 814.628ZM-388.943 733.064L-390.68 732.073L-390.688 732.086L-390.695 732.1L-388.943 733.064ZM-335.659 639.66L-333.922 640.651L-333.91 640.631L-333.899 640.611L-335.659 639.66ZM567.309 1459.69L566.601 1457.82L566.589 1457.82L567.309 1459.69ZM635.786 1439.51L635.224 1437.59L635.216 1437.6L635.786 1439.51ZM642.611 1434.03L644.365 1434.99L644.41 1434.91L644.447 1434.82L642.611 1434.03ZM686.648 1258.63L688.641 1258.79L688.644 1258.76L688.646 1258.72L686.648 1258.63ZM688.409 1170.92L690.409 1170.95L690.409 1170.94V1170.92H688.409ZM688.409 1157.77L688.45 1155.77L686.409 1155.73V1157.77H688.409ZM1032.78 1222.01L1034.63 1222.75L1035.31 1221.07L1033.69 1220.23L1032.78 1222.01ZM996.885 1311.25L995.079 1310.39L995.078 1310.39L996.885 1311.25ZM869.399 1511.87L867.856 1510.6L867.842 1510.61L867.828 1510.63L869.399 1511.87ZM827.344 1563.18L828.78 1564.57L828.827 1564.52L828.87 1564.47L827.344 1563.18ZM817.656 1568V1570H817.781L817.904 1569.98L817.656 1568ZM52.9634 346.512L53.3506 348.475L53.3919 348.466L53.4328 348.457L52.9634 346.512ZM-39.293 427.638L-37.4079 428.306L-37.4013 428.288L-37.3951 428.269L-39.293 427.638ZM-55.3672 471.49L-57.2677 472.113L-55.4288 477.721L-53.4795 472.15L-55.3672 471.49ZM-86.8531 373.92L-84.9134 373.433L-84.9412 373.322L-84.9814 373.215L-86.8531 373.92ZM-47.8804 301.565L-48.293 299.608L-48.3114 299.612L-48.3297 299.616L-47.8804 301.565ZM-6.92685 301.565L-6.4144 299.632L-6.46402 299.618L-6.51425 299.608L-6.92685 301.565ZM38.8715 317.57L38.0681 319.402L38.1311 319.429L38.1958 319.453L38.8715 317.57ZM200.705 612.472L201.951 610.908L201.942 610.9L201.932 610.893L200.705 612.472ZM182.65 603.264L181.994 605.153L182.042 605.17L182.091 605.184L182.65 603.264ZM153.806 595.37L152.965 597.184L153.03 597.214L153.097 597.24L153.806 595.37ZM136.412 541.433L135.089 539.933L134.837 540.155L134.672 540.447L136.412 541.433ZM152.485 536.609L152.807 534.635L152.785 534.631L152.762 534.628L152.485 536.609ZM214.136 580.46L212.375 581.409L212.388 581.432L212.401 581.455L214.136 580.46ZM63.5607 983.561C-125.223 854.44 -251.177 687.183 -275.321 455.058L-279.3 455.472C-255.004 689.051 -128.187 857.259 61.3026 986.863L63.5607 983.561ZM-279.115 456.128L-276.913 460.732L-273.304 459.006L-275.506 454.402L-279.115 456.128ZM-277.108 459.869C-277.108 461.206 -276.612 462.421 -276.214 463.299C-275.745 464.335 -275.436 464.884 -275.27 465.464L-271.425 464.361C-271.699 463.406 -272.271 462.31 -272.571 461.647C-272.944 460.825 -273.108 460.285 -273.108 459.869H-277.108ZM-275.252 465.522C-244.049 562.951 -185.73 649.564 -107.071 715.305L-104.505 712.235C-182.585 646.98 -240.471 561.008 -271.442 464.302L-275.252 465.522ZM-107.074 715.301C-56.8332 757.504 6.14435 781.749 71.8254 784.177L71.9732 780.18C7.18018 777.785 -54.9435 753.867 -104.502 712.239L-107.074 715.301ZM71.8994 784.179C84.6056 784.179 96.8241 786.13 109.853 787.024L110.127 783.034C97.6156 782.174 84.7343 780.179 71.8994 780.179V784.179ZM109.893 787.027C128.804 787.952 146.77 795.533 160.589 808.418L163.317 805.492C148.805 791.961 129.942 784.003 110.088 783.031L109.893 787.027ZM160.572 808.401C187.679 834.299 217.823 856.848 250.35 875.562L252.344 872.095C220.095 853.541 190.21 831.185 163.335 805.509L160.572 808.401ZM250.312 875.54C279.795 893.374 314.532 900.59 348.716 895.982L348.181 892.018C314.901 896.504 281.083 889.479 252.382 872.117L250.312 875.54ZM348.535 895.998C357.279 895.62 365.735 892.769 372.91 887.775L370.625 884.492C364.073 889.052 356.35 891.657 348.362 892.002L348.535 895.998ZM372.91 887.775C380.085 882.781 385.683 875.853 389.046 867.802L385.355 866.26C382.286 873.608 377.177 879.932 370.625 884.492L372.91 887.775ZM389.201 867.031C389.201 867.15 389.115 866.918 390.13 866.188C390.575 865.868 391.05 865.573 391.636 865.192C392.18 864.837 392.804 864.417 393.358 863.934L390.73 860.919C390.403 861.203 389.982 861.495 389.453 861.84C388.965 862.158 388.339 862.548 387.794 862.941C386.827 863.636 385.201 864.94 385.201 867.031H389.201ZM392.044 864.426H393.806V860.426H392.044V864.426ZM394.386 864.34C411.176 859.247 422.753 852.479 429.109 842.271C435.478 832.042 436.321 818.819 432.755 801.509L428.837 802.316C432.318 819.21 431.289 831.201 425.713 840.157C420.124 849.133 409.684 855.52 393.225 860.513L394.386 864.34ZM432.755 801.508C427.266 774.908 417.767 749.288 404.582 725.517L401.084 727.458C414.073 750.875 423.43 776.113 428.838 802.316L432.755 801.508ZM404.538 725.443C392.195 705.287 384.754 682.538 382.808 659.01L378.821 659.34C380.819 683.491 388.458 706.843 401.127 727.532L404.538 725.443ZM382.813 659.25C383.259 647.428 384.572 635.654 386.744 624.022L382.812 623.288C380.604 635.112 379.269 647.081 378.816 659.1L382.813 659.25ZM386.762 623.906C390.727 592.536 394.468 561.423 398.651 530.298L394.686 529.765C390.501 560.91 386.755 592.067 382.793 623.404L386.762 623.906ZM398.649 530.308C401.097 512.766 398.276 494.896 390.542 478.949L386.943 480.695C394.331 495.929 397.025 512.999 394.688 529.755L398.649 530.308ZM390.542 478.95C384.576 466.629 377.931 454.715 371.573 442.708L368.038 444.58C374.451 456.691 381.018 468.458 386.942 480.693L390.542 478.95ZM371.57 442.703C365.179 430.709 362.715 417.024 364.523 403.566L360.558 403.033C358.639 417.322 361.255 431.851 368.04 444.584L371.57 442.703ZM364.513 403.627C369.114 375.894 368.131 347.528 361.624 320.177L357.732 321.103C364.117 347.936 365.081 375.765 360.567 402.972L364.513 403.627ZM361.642 320.265C358.84 305.585 350.742 292.434 338.878 283.291L336.436 286.46C347.528 295.007 355.095 307.299 357.713 321.015L361.642 320.265ZM338.878 283.291C327.013 274.149 312.202 269.645 297.235 270.627L297.497 274.618C311.494 273.7 325.344 277.912 336.436 286.46L338.878 283.291ZM297.328 270.623C274.481 271.055 251.703 273.264 229.202 277.23L229.896 281.17C252.193 277.239 274.764 275.05 297.404 274.622L297.328 270.623ZM229.042 277.266C221.551 279.232 213.663 279.1 206.244 276.884L205.099 280.716C213.221 283.143 221.857 283.287 230.057 281.134L229.042 277.266ZM206.244 276.884C198.825 274.667 192.165 270.453 187 264.708L184.025 267.382C189.683 273.676 196.976 278.29 205.099 280.716L206.244 276.884ZM186.896 264.601C162.088 240.834 141.189 213.329 124.964 183.096L121.44 184.987C137.863 215.591 159.018 243.433 184.129 267.489L186.896 264.601ZM124.99 183.144C103.245 139.838 106.302 102.161 122.152 72.955C138.05 43.6616 166.931 22.6917 197.123 13.1746L195.921 9.35964C164.902 19.1373 135.105 40.7028 118.637 71.047C102.121 101.479 99.1227 140.542 121.415 184.939L124.99 183.144ZM197.095 13.1832C235.049 1.82815 275.075 -0.9244 314.235 5.12985L314.846 1.17681C275.098 -4.96827 234.472 -2.17446 195.949 9.35104L197.095 13.1832ZM314.248 5.13181C390.903 16.468 465.873 37.1174 537.484 66.6154L539.007 62.9169C467.096 33.2948 391.81 12.5587 314.833 1.17485L314.248 5.13181ZM537.509 66.6256C594.668 89.2707 653.726 106.839 713.992 119.128L714.791 115.208C654.755 102.967 595.923 85.4653 538.982 62.9068L537.509 66.6256ZM714.034 119.136C744.23 124.623 774.723 128.367 804.805 132.958L805.408 129.004C775.16 124.387 744.882 120.676 714.749 115.2L714.034 119.136ZM804.813 132.96C921.699 150.276 1037.07 172.172 1145.58 220.511L1147.2 216.858C1038.17 168.285 922.347 146.329 805.4 129.003L804.813 132.96ZM1145.58 220.512C1291.17 285.173 1409.34 398.674 1479.49 541.219L1483.08 539.453C1412.52 396.065 1293.65 281.897 1147.2 216.857L1145.58 220.512ZM1479.5 541.241C1524.78 630.426 1556.62 725.764 1574 824.186L1577.93 823.49C1560.49 724.68 1528.52 628.967 1483.07 539.431L1479.5 541.241ZM1574 824.207C1592.52 922.985 1599.89 1023.52 1595.99 1123.92L1599.98 1124.08C1603.9 1023.37 1596.5 922.542 1577.93 823.47L1574 824.207ZM1595.99 1123.92C1593.78 1179.37 1590.48 1234.79 1584.55 1289.99L1588.52 1290.41C1594.47 1235.1 1597.78 1179.58 1599.98 1124.08L1595.99 1123.92ZM1584.55 1289.99C1574.79 1380.63 1557.73 1470.34 1533.52 1558.26L1537.38 1559.32C1561.64 1471.2 1578.75 1381.27 1588.52 1290.41L1584.55 1289.99ZM1533.52 1558.28C1532.83 1560.91 1532.31 1562.61 1531.32 1563.76C1530.48 1564.74 1529.04 1565.56 1525.76 1565.56V1569.56C1529.75 1569.56 1532.5 1568.52 1534.35 1566.37C1536.06 1564.4 1536.75 1561.71 1537.39 1559.3L1533.52 1558.28ZM1152.75 1567.99C1157.64 1545.44 1167.27 1524.17 1181.02 1505.61L1177.81 1503.23C1163.72 1522.25 1153.85 1544.03 1148.84 1567.14L1152.75 1567.99ZM1181 1505.64C1202.09 1478.35 1229.01 1456.07 1259.81 1440.42L1258 1436.85C1226.67 1452.77 1199.28 1475.43 1177.83 1503.19L1181 1505.64ZM1259.9 1440.37C1275.92 1431.19 1292.36 1423.12 1309.36 1414.32L1307.52 1410.77C1290.62 1419.51 1274.03 1427.67 1257.91 1436.9L1259.9 1440.37ZM1310.44 1412.55C1310.44 1412.54 1310.44 1412.54 1310.44 1412.54C1310.44 1412.54 1310.44 1412.53 1310.44 1412.53C1310.44 1412.53 1310.44 1412.53 1310.44 1412.52C1310.44 1412.52 1310.44 1412.52 1310.44 1412.52C1310.44 1412.51 1310.44 1412.51 1310.44 1412.51C1310.44 1412.5 1310.44 1412.5 1310.44 1412.5C1310.44 1412.5 1310.44 1412.49 1310.44 1412.49C1310.44 1412.49 1310.44 1412.49 1310.44 1412.48C1310.44 1412.48 1310.44 1412.48 1310.44 1412.48C1310.44 1412.47 1310.44 1412.47 1310.44 1412.47C1310.44 1412.47 1310.44 1412.46 1310.44 1412.46C1310.44 1412.46 1310.44 1412.46 1310.44 1412.45C1310.44 1412.45 1310.44 1412.45 1310.44 1412.45C1310.44 1412.44 1310.44 1412.44 1310.44 1412.44C1310.44 1412.44 1310.44 1412.43 1310.44 1412.43C1310.44 1412.43 1310.44 1412.43 1310.44 1412.42C1310.44 1412.42 1310.44 1412.42 1310.44 1412.41C1310.44 1412.41 1310.44 1412.41 1310.44 1412.41C1310.44 1412.4 1310.44 1412.4 1310.44 1412.4C1310.44 1412.4 1310.44 1412.39 1310.44 1412.39C1310.44 1412.39 1310.44 1412.39 1310.44 1412.38C1310.44 1412.38 1310.44 1412.38 1310.44 1412.38C1310.44 1412.37 1310.44 1412.37 1310.44 1412.37C1310.44 1412.37 1310.44 1412.36 1310.44 1412.36C1310.44 1412.36 1310.44 1412.36 1310.44 1412.35C1310.44 1412.35 1310.44 1412.35 1310.44 1412.35C1310.44 1412.34 1310.44 1412.34 1310.44 1412.34C1310.44 1412.34 1310.44 1412.33 1310.44 1412.33C1310.44 1412.33 1310.44 1412.33 1310.44 1412.32C1310.44 1412.32 1310.44 1412.32 1310.44 1412.31C1310.44 1412.31 1310.44 1412.31 1310.44 1412.31C1310.44 1412.3 1310.44 1412.3 1310.44 1412.3C1310.44 1412.3 1310.44 1412.29 1310.44 1412.29C1310.44 1412.29 1310.44 1412.29 1310.44 1412.28C1310.44 1412.28 1310.44 1412.28 1310.44 1412.28C1310.44 1412.27 1310.44 1412.27 1310.44 1412.27C1310.44 1412.27 1310.44 1412.26 1310.44 1412.26C1310.44 1412.26 1310.44 1412.26 1310.44 1412.25C1310.44 1412.25 1310.44 1412.25 1310.44 1412.25C1310.44 1412.24 1310.44 1412.24 1310.44 1412.24C1310.44 1412.24 1310.44 1412.23 1310.44 1412.23C1310.44 1412.23 1310.44 1412.22 1310.44 1412.22C1310.44 1412.22 1310.44 1412.22 1310.44 1412.21C1310.44 1412.21 1310.44 1412.21 1310.44 1412.21C1310.44 1412.2 1310.44 1412.2 1310.44 1412.2C1310.44 1412.2 1310.44 1412.19 1310.44 1412.19C1310.44 1412.19 1310.44 1412.19 1310.44 1412.18C1310.44 1412.18 1310.44 1412.18 1310.44 1412.18C1310.44 1412.17 1310.44 1412.17 1310.44 1412.17C1310.44 1412.17 1310.44 1412.16 1310.44 1412.16C1310.44 1412.16 1310.44 1412.16 1310.44 1412.15C1310.44 1412.15 1310.44 1412.15 1310.44 1412.15C1310.44 1412.14 1310.44 1412.14 1310.44 1412.14C1310.44 1412.13 1310.44 1412.13 1310.44 1412.13C1310.44 1412.13 1310.44 1412.12 1310.44 1412.12C1310.44 1412.12 1310.44 1412.12 1310.44 1412.11C1310.44 1412.11 1310.44 1412.11 1310.44 1412.11C1310.44 1412.1 1310.44 1412.1 1310.44 1412.1C1310.44 1412.1 1310.44 1412.09 1310.44 1412.09C1310.44 1412.09 1310.44 1412.09 1310.44 1412.08C1310.44 1412.08 1310.44 1412.08 1310.44 1412.08C1310.44 1412.07 1310.44 1412.07 1310.44 1412.07C1310.44 1412.07 1310.44 1412.06 1310.44 1412.06C1310.44 1412.06 1310.44 1412.06 1310.44 1412.05C1310.44 1412.05 1310.44 1412.05 1310.44 1412.05C1310.44 1412.04 1310.44 1412.04 1310.44 1412.04C1310.44 1412.03 1310.44 1412.03 1310.44 1412.03C1310.44 1412.03 1310.44 1412.02 1310.44 1412.02C1310.44 1412.02 1310.44 1412.02 1310.44 1412.01C1310.44 1412.01 1310.44 1412.01 1310.44 1412.01C1310.44 1412 1310.44 1412 1310.44 1412C1310.44 1412 1310.44 1411.99 1310.44 1411.99C1310.44 1411.99 1310.44 1411.99 1310.44 1411.98C1310.44 1411.98 1310.44 1411.98 1310.44 1411.98C1310.44 1411.97 1310.44 1411.97 1310.44 1411.97C1310.44 1411.97 1310.44 1411.96 1310.44 1411.96C1310.44 1411.96 1310.44 1411.96 1310.44 1411.95C1310.44 1411.95 1310.44 1411.95 1310.44 1411.94C1310.44 1411.94 1310.44 1411.94 1310.44 1411.94C1310.44 1411.93 1310.44 1411.93 1310.44 1411.93C1310.44 1411.93 1310.44 1411.92 1310.44 1411.92C1310.44 1411.92 1310.44 1411.92 1310.44 1411.91C1310.44 1411.91 1310.44 1411.91 1310.44 1411.91C1310.44 1411.9 1310.44 1411.9 1310.44 1411.9C1310.44 1411.9 1310.44 1411.89 1310.44 1411.89C1310.44 1411.89 1310.44 1411.89 1310.44 1411.88C1310.44 1411.88 1310.44 1411.88 1310.44 1411.88C1310.44 1411.87 1310.44 1411.87 1310.44 1411.87C1310.44 1411.87 1310.44 1411.86 1310.44 1411.86C1310.44 1411.86 1310.44 1411.85 1310.44 1411.85C1310.44 1411.85 1310.44 1411.85 1310.44 1411.84C1310.44 1411.84 1310.44 1411.84 1310.44 1411.84C1310.44 1411.83 1310.44 1411.83 1310.44 1411.83C1310.44 1411.83 1310.44 1411.82 1310.44 1411.82C1310.44 1411.82 1310.44 1411.82 1310.44 1411.81C1310.44 1411.81 1310.44 1411.81 1310.44 1411.81C1310.44 1411.8 1310.44 1411.8 1310.44 1411.8C1310.44 1411.8 1310.44 1411.79 1310.44 1411.79C1310.44 1411.79 1310.44 1411.79 1310.44 1411.78C1310.44 1411.78 1310.44 1411.78 1310.44 1411.78C1310.44 1411.77 1310.44 1411.77 1310.44 1411.77C1310.44 1411.76 1310.44 1411.76 1310.44 1411.76C1310.44 1411.76 1310.44 1411.75 1310.44 1411.75C1310.44 1411.75 1310.44 1411.75 1310.44 1411.74C1310.44 1411.74 1310.44 1411.74 1310.44 1411.74C1310.44 1411.73 1310.44 1411.73 1310.44 1411.73C1310.44 1411.73 1310.44 1411.72 1310.44 1411.72C1310.44 1411.72 1310.44 1411.72 1310.44 1411.71C1310.44 1411.71 1310.44 1411.71 1310.44 1411.71C1310.44 1411.7 1310.44 1411.7 1310.44 1411.7C1310.44 1411.7 1310.44 1411.69 1310.44 1411.69C1310.44 1411.69 1310.44 1411.69 1310.44 1411.68C1310.44 1411.68 1310.44 1411.68 1310.44 1411.68C1310.44 1411.67 1310.44 1411.67 1310.44 1411.67C1310.44 1411.66 1310.44 1411.66 1310.44 1411.66C1310.44 1411.66 1310.44 1411.65 1310.44 1411.65C1310.44 1411.65 1310.44 1411.65 1310.44 1411.64C1310.44 1411.64 1310.44 1411.64 1310.44 1411.64C1310.44 1411.63 1310.44 1411.63 1310.44 1411.63C1310.44 1411.63 1310.44 1411.62 1310.44 1411.62C1310.44 1411.62 1310.44 1411.62 1310.44 1411.61C1310.44 1411.61 1310.44 1411.61 1310.44 1411.61C1310.44 1411.6 1310.44 1411.6 1310.44 1411.6C1310.44 1411.6 1310.44 1411.59 1310.44 1411.59C1310.44 1411.59 1310.44 1411.59 1310.44 1411.58C1310.44 1411.58 1310.44 1411.58 1310.44 1411.57C1310.44 1411.57 1310.44 1411.57 1310.44 1411.57C1310.44 1411.56 1310.44 1411.56 1310.44 1411.56C1310.44 1411.56 1310.44 1411.55 1310.44 1411.55C1310.44 1411.55 1310.44 1411.55 1310.44 1411.54C1310.44 1411.54 1310.44 1411.54 1310.44 1411.54C1310.44 1411.53 1310.44 1411.53 1310.44 1411.53C1310.44 1411.53 1310.44 1411.52 1310.44 1411.52C1310.44 1411.52 1310.44 1411.52 1310.44 1411.51C1310.44 1411.51 1310.44 1411.51 1310.44 1411.51C1310.44 1411.5 1310.44 1411.5 1310.44 1411.5C1310.44 1411.5 1310.44 1411.49 1310.44 1411.49C1310.44 1411.49 1310.44 1411.48 1310.44 1411.48C1310.44 1411.48 1310.44 1411.48 1310.44 1411.47C1310.44 1411.47 1310.44 1411.47 1310.44 1411.47C1310.44 1411.46 1310.44 1411.46 1310.44 1411.46C1310.44 1411.46 1310.44 1411.45 1310.44 1411.45C1310.44 1411.45 1310.44 1411.45 1310.44 1411.44C1310.44 1411.44 1310.44 1411.44 1310.44 1411.44C1310.44 1411.43 1310.44 1411.43 1310.44 1411.43C1310.44 1411.43 1310.44 1411.42 1310.44 1411.42C1310.44 1411.42 1310.44 1411.42 1310.44 1411.41C1310.44 1411.41 1310.44 1411.41 1310.44 1411.41C1310.44 1411.4 1310.44 1411.4 1310.44 1411.4C1310.44 1411.39 1310.44 1411.39 1310.44 1411.39C1310.44 1411.39 1310.44 1411.38 1310.44 1411.38C1310.44 1411.38 1310.44 1411.38 1310.44 1411.37C1310.44 1411.37 1310.44 1411.37 1310.44 1411.37C1310.44 1411.36 1310.44 1411.36 1310.44 1411.36C1310.44 1411.36 1310.44 1411.35 1310.44 1411.35C1310.44 1411.35 1310.44 1411.35 1310.44 1411.34C1310.44 1411.34 1310.44 1411.34 1310.44 1411.34C1310.44 1411.33 1310.44 1411.33 1310.44 1411.33C1310.44 1411.33 1310.44 1411.32 1310.44 1411.32C1310.44 1411.32 1310.44 1411.32 1310.44 1411.31C1310.44 1411.31 1310.44 1411.31 1310.44 1411.31C1310.44 1411.3 1310.44 1411.3 1310.44 1411.3C1310.44 1411.29 1310.44 1411.29 1310.44 1411.29C1310.44 1411.29 1310.44 1411.28 1310.44 1411.28C1310.44 1411.28 1310.44 1411.28 1310.44 1411.27C1310.44 1411.27 1310.44 1411.27 1310.44 1411.27C1310.44 1411.26 1310.44 1411.26 1310.44 1411.26C1310.44 1411.26 1310.44 1411.25 1310.44 1411.25C1310.44 1411.25 1310.44 1411.25 1310.44 1411.24C1310.44 1411.24 1310.44 1411.24 1310.44 1411.24C1310.44 1411.23 1310.44 1411.23 1310.44 1411.23C1310.44 1411.23 1310.44 1411.22 1310.44 1411.22C1310.44 1411.22 1310.44 1411.22 1310.44 1411.21C1310.44 1411.21 1310.44 1411.21 1310.44 1411.2C1310.44 1411.2 1310.44 1411.2 1310.44 1411.2C1310.44 1411.19 1310.44 1411.19 1310.44 1411.19C1310.44 1411.19 1310.44 1411.18 1310.44 1411.18C1310.44 1411.18 1310.44 1411.18 1310.44 1411.17C1310.44 1411.17 1310.44 1411.17 1310.44 1411.17C1310.44 1411.16 1310.44 1411.16 1310.44 1411.16C1310.44 1411.16 1310.44 1411.15 1310.44 1411.15C1310.44 1411.15 1310.44 1411.15 1310.44 1411.14C1310.44 1411.14 1310.44 1411.14 1310.44 1411.14C1310.44 1411.13 1310.44 1411.13 1310.44 1411.13C1310.44 1411.13 1310.44 1411.12 1310.44 1411.12C1310.44 1411.12 1310.44 1411.11 1310.44 1411.11C1310.44 1411.11 1310.44 1411.11 1310.44 1411.1C1310.44 1411.1 1310.44 1411.1 1310.44 1411.1C1310.44 1411.09 1310.44 1411.09 1310.44 1411.09C1310.44 1411.09 1310.44 1411.08 1310.44 1411.08C1310.44 1411.08 1310.44 1411.08 1310.44 1411.07C1310.44 1411.07 1310.44 1411.07 1310.44 1411.07C1310.44 1411.06 1310.44 1411.06 1310.44 1411.06C1310.44 1411.06 1310.44 1411.05 1310.44 1411.05C1310.44 1411.05 1310.44 1411.05 1310.44 1411.04C1310.44 1411.04 1310.44 1411.04 1310.44 1411.04C1310.44 1411.03 1310.44 1411.03 1310.44 1411.03C1310.44 1411.03 1310.44 1411.02 1310.44 1411.02C1310.44 1411.02 1310.44 1411.01 1310.44 1411.01C1310.44 1411.01 1310.44 1411.01 1310.44 1411C1310.44 1411 1310.44 1411 1310.44 1411C1310.44 1410.99 1310.44 1410.99 1310.44 1410.99C1310.44 1410.99 1310.44 1410.98 1310.44 1410.98C1310.44 1410.98 1310.44 1410.98 1310.44 1410.97C1310.44 1410.97 1310.44 1410.97 1310.44 1410.97C1310.44 1410.96 1310.44 1410.96 1310.44 1410.96C1310.44 1410.96 1310.44 1410.95 1310.44 1410.95C1310.44 1410.95 1310.44 1410.95 1310.44 1410.94C1310.44 1410.94 1310.44 1410.94 1310.44 1410.94C1310.44 1410.93 1310.44 1410.93 1310.44 1410.93C1310.44 1410.92 1310.44 1410.92 1310.44 1410.92C1310.44 1410.92 1310.44 1410.91 1310.44 1410.91C1310.44 1410.91 1310.44 1410.91 1310.44 1410.9C1310.44 1410.9 1310.44 1410.9 1310.44 1410.9C1310.44 1410.89 1310.44 1410.89 1310.44 1410.89C1310.44 1410.89 1310.44 1410.88 1310.44 1410.88C1310.44 1410.88 1310.44 1410.88 1310.44 1410.87C1310.44 1410.87 1310.44 1410.87 1310.44 1410.87C1310.44 1410.86 1310.44 1410.86 1310.44 1410.86C1310.44 1410.86 1310.44 1410.85 1310.44 1410.85C1310.44 1410.85 1310.44 1410.85 1310.44 1410.84C1310.44 1410.84 1310.44 1410.84 1310.44 1410.83C1310.44 1410.83 1310.44 1410.83 1310.44 1410.83C1310.44 1410.82 1310.44 1410.82 1310.44 1410.82C1310.44 1410.82 1310.44 1410.81 1310.44 1410.81C1310.44 1410.81 1310.44 1410.81 1310.44 1410.8C1310.44 1410.8 1310.44 1410.8 1310.44 1410.8C1310.44 1410.79 1310.44 1410.79 1310.44 1410.79C1310.44 1410.79 1310.44 1410.78 1310.44 1410.78C1310.44 1410.78 1310.44 1410.78 1310.44 1410.77C1310.44 1410.77 1310.44 1410.77 1310.44 1410.77C1310.44 1410.76 1310.44 1410.76 1310.44 1410.76C1310.44 1410.76 1310.44 1410.75 1310.44 1410.75C1310.44 1410.75 1310.44 1410.74 1310.44 1410.74C1310.44 1410.74 1310.44 1410.74 1310.44 1410.73C1310.44 1410.73 1310.44 1410.73 1310.44 1410.73C1310.44 1410.72 1310.44 1410.72 1310.44 1410.72C1310.44 1410.72 1310.44 1410.71 1310.44 1410.71C1310.44 1410.71 1310.44 1410.71 1310.44 1410.7C1310.44 1410.7 1310.44 1410.7 1310.44 1410.7C1310.44 1410.69 1310.44 1410.69 1310.44 1410.69C1310.44 1410.69 1310.44 1410.68 1310.44 1410.68C1310.44 1410.68 1310.44 1410.68 1310.44 1410.67C1310.44 1410.67 1310.44 1410.67 1310.44 1410.67C1310.44 1410.66 1310.44 1410.66 1310.44 1410.66C1310.44 1410.66 1310.44 1410.65 1310.44 1410.65C1310.44 1410.65 1310.44 1410.64 1310.44 1410.64C1310.44 1410.64 1310.44 1410.64 1310.44 1410.63C1310.44 1410.63 1310.44 1410.63 1310.44 1410.63C1310.44 1410.62 1310.44 1410.62 1310.44 1410.62C1310.44 1410.62 1310.44 1410.61 1310.44 1410.61C1310.44 1410.61 1310.44 1410.61 1310.44 1410.6C1310.44 1410.6 1310.44 1410.6 1310.44 1410.6C1310.44 1410.59 1310.44 1410.59 1310.44 1410.59C1310.44 1410.59 1310.44 1410.58 1310.44 1410.58C1310.44 1410.58 1310.44 1410.58 1310.44 1410.57C1310.44 1410.57 1310.44 1410.57 1310.44 1410.57C1310.44 1410.56 1310.44 1410.56 1310.44 1410.56C1310.44 1410.55 1310.44 1410.55 1310.44 1410.55C1310.44 1410.55 1310.44 1410.54 1310.44 1410.54C1310.44 1410.54 1310.44 1410.54 1310.44 1410.53C1310.44 1410.53 1310.44 1410.53 1310.44 1410.53C1310.44 1410.52 1310.44 1410.52 1310.44 1410.52C1310.44 1410.52 1310.44 1410.51 1310.44 1410.51C1310.44 1410.51 1310.44 1410.51 1310.44 1410.5C1310.44 1410.5 1310.44 1410.5 1310.44 1410.5C1310.44 1410.49 1310.44 1410.49 1310.44 1410.49C1310.44 1410.49 1310.44 1410.48 1310.44 1410.48C1310.44 1410.48 1310.44 1410.48 1310.44 1410.47C1310.44 1410.47 1310.44 1410.47 1310.44 1410.46C1310.44 1410.46 1310.44 1410.46 1310.44 1410.46C1310.44 1410.45 1310.44 1410.45 1310.44 1410.45C1310.44 1410.45 1310.44 1410.44 1310.44 1410.44C1310.44 1410.44 1310.44 1410.44 1310.44 1410.43C1310.44 1410.43 1310.44 1410.43 1310.44 1410.43C1310.44 1410.42 1310.44 1410.42 1310.44 1410.42C1310.44 1410.42 1310.44 1410.41 1310.44 1410.41C1310.44 1410.41 1310.44 1410.41 1310.44 1410.4C1310.44 1410.4 1310.44 1410.4 1310.44 1410.4C1310.44 1410.39 1310.44 1410.39 1310.44 1410.39C1310.44 1410.39 1310.44 1410.38 1310.44 1410.38C1310.44 1410.38 1310.44 1410.38 1310.44 1410.37C1310.44 1410.37 1310.44 1410.37 1310.44 1410.36C1310.44 1410.36 1310.44 1410.36 1310.44 1410.36C1310.44 1410.35 1310.44 1410.35 1310.44 1410.35C1310.44 1410.35 1310.44 1410.34 1310.44 1410.34C1310.44 1410.34 1310.44 1410.34 1310.44 1410.33C1310.44 1410.33 1310.44 1410.33 1310.44 1410.33C1310.44 1410.32 1310.44 1410.32 1310.44 1410.32C1310.44 1410.32 1310.44 1410.31 1310.44 1410.31C1310.44 1410.31 1310.44 1410.31 1310.44 1410.3C1310.44 1410.3 1310.44 1410.3 1310.44 1410.3C1310.44 1410.29 1310.44 1410.29 1310.44 1410.29C1310.44 1410.29 1310.44 1410.28 1310.44 1410.28C1310.44 1410.28 1310.44 1410.27 1310.44 1410.27C1310.44 1410.27 1310.44 1410.27 1310.44 1410.26C1310.44 1410.26 1310.44 1410.26 1310.44 1410.26C1310.44 1410.25 1310.44 1410.25 1310.44 1410.25C1310.44 1410.25 1310.44 1410.24 1310.44 1410.24C1310.44 1410.24 1310.44 1410.24 1310.44 1410.23C1310.44 1410.23 1310.44 1410.23 1310.44 1410.23C1310.44 1410.22 1310.44 1410.22 1310.44 1410.22C1310.44 1410.22 1310.44 1410.21 1310.44 1410.21C1310.44 1410.21 1310.44 1410.21 1310.44 1410.2C1310.44 1410.2 1310.44 1410.2 1310.44 1410.2C1310.44 1410.19 1310.44 1410.19 1310.44 1410.19C1310.44 1410.18 1310.44 1410.18 1310.44 1410.18C1310.44 1410.18 1310.44 1410.17 1310.44 1410.17C1310.44 1410.17 1310.44 1410.17 1310.44 1410.16C1310.44 1410.16 1310.44 1410.16 1310.44 1410.16C1310.44 1410.15 1310.44 1410.15 1310.44 1410.15C1310.44 1410.15 1310.44 1410.14 1310.44 1410.14C1310.44 1410.14 1310.44 1410.14 1310.44 1410.13C1310.44 1410.13 1310.44 1410.13 1310.44 1410.13C1310.44 1410.12 1310.44 1410.12 1310.44 1410.12C1310.44 1410.12 1310.44 1410.11 1310.44 1410.11C1310.44 1410.11 1310.44 1410.11 1310.44 1410.1C1310.44 1410.1 1310.44 1410.1 1310.44 1410.09C1310.44 1410.09 1310.44 1410.09 1310.44 1410.09C1310.44 1410.08 1310.44 1410.08 1310.44 1410.08C1310.44 1410.08 1310.44 1410.07 1310.44 1410.07C1310.44 1410.07 1310.44 1410.07 1310.44 1410.06C1310.44 1410.06 1310.44 1410.06 1310.44 1410.06C1310.44 1410.05 1310.44 1410.05 1310.44 1410.05C1310.44 1410.05 1310.44 1410.04 1310.44 1410.04C1310.44 1410.04 1310.44 1410.04 1310.44 1410.03C1310.44 1410.03 1310.44 1410.03 1310.44 1410.03C1310.44 1410.02 1310.44 1410.02 1310.44 1410.02C1310.44 1410.02 1310.44 1410.01 1310.44 1410.01C1310.44 1410.01 1310.44 1410.01 1310.44 1410C1310.44 1410 1310.44 1410 1310.44 1409.99C1310.44 1409.99 1310.44 1409.99 1310.44 1409.99C1310.44 1409.98 1310.44 1409.98 1310.44 1409.98C1310.44 1409.98 1310.44 1409.97 1310.44 1409.97C1310.44 1409.97 1310.44 1409.97 1310.44 1409.96C1310.44 1409.96 1310.44 1409.96 1310.44 1409.96C1310.44 1409.95 1310.44 1409.95 1310.44 1409.95C1310.44 1409.95 1310.44 1409.94 1310.44 1409.94C1310.44 1409.94 1310.44 1409.94 1310.44 1409.93C1310.44 1409.93 1310.44 1409.93 1310.44 1409.93C1310.44 1409.92 1310.44 1409.92 1310.44 1409.92C1310.44 1409.92 1310.44 1409.91 1310.44 1409.91C1310.44 1409.91 1310.44 1409.9 1310.44 1409.9C1310.44 1409.9 1310.44 1409.9 1310.44 1409.89C1310.44 1409.89 1310.44 1409.89 1310.44 1409.89C1310.44 1409.88 1310.44 1409.88 1310.44 1409.88C1310.44 1409.88 1310.44 1409.87 1310.44 1409.87C1310.44 1409.87 1310.44 1409.87 1310.44 1409.86C1310.44 1409.86 1310.44 1409.86 1310.44 1409.86C1310.44 1409.85 1310.44 1409.85 1310.44 1409.85C1310.44 1409.85 1310.44 1409.84 1310.44 1409.84C1310.44 1409.84 1310.44 1409.84 1310.44 1409.83C1310.44 1409.83 1310.44 1409.83 1310.44 1409.83C1310.44 1409.82 1310.44 1409.82 1310.44 1409.82C1310.44 1409.81 1310.44 1409.81 1310.44 1409.81C1310.44 1409.81 1310.44 1409.8 1310.44 1409.8C1310.44 1409.8 1310.44 1409.8 1310.44 1409.79C1310.44 1409.79 1310.44 1409.79 1310.44 1409.79C1310.44 1409.78 1310.44 1409.78 1310.44 1409.78C1310.44 1409.78 1310.44 1409.77 1310.44 1409.77C1310.44 1409.77 1310.44 1409.77 1310.44 1409.76C1310.44 1409.76 1310.44 1409.76 1310.44 1409.76C1310.44 1409.75 1310.44 1409.75 1310.44 1409.75C1310.44 1409.75 1310.44 1409.74 1310.44 1409.74C1310.44 1409.74 1310.44 1409.74 1310.44 1409.73C1310.44 1409.73 1310.44 1409.73 1310.44 1409.72C1310.44 1409.72 1310.44 1409.72 1310.44 1409.72C1310.44 1409.71 1310.44 1409.71 1310.44 1409.71C1310.44 1409.71 1310.44 1409.7 1310.44 1409.7C1310.44 1409.7 1310.44 1409.7 1310.44 1409.69C1310.44 1409.69 1310.44 1409.69 1310.44 1409.69C1310.44 1409.68 1310.44 1409.68 1310.44 1409.68C1310.44 1409.68 1310.44 1409.67 1310.44 1409.67C1310.44 1409.67 1310.44 1409.67 1310.44 1409.66C1310.44 1409.66 1310.44 1409.66 1310.44 1409.66C1310.44 1409.65 1310.44 1409.65 1310.44 1409.65C1310.44 1409.65 1310.44 1409.64 1310.44 1409.64C1310.44 1409.64 1310.44 1409.64 1310.44 1409.63C1310.44 1409.63 1310.44 1409.63 1310.44 1409.62C1310.44 1409.62 1310.44 1409.62 1310.44 1409.62C1310.44 1409.61 1310.44 1409.61 1310.44 1409.61C1310.44 1409.61 1310.44 1409.6 1310.44 1409.6C1310.44 1409.6 1310.44 1409.6 1310.44 1409.59C1310.44 1409.59 1310.44 1409.59 1310.44 1409.59C1310.44 1409.58 1310.44 1409.58 1310.44 1409.58C1310.44 1409.58 1310.44 1409.57 1310.44 1409.57C1310.44 1409.57 1310.44 1409.57 1310.44 1409.56C1310.44 1409.56 1310.44 1409.56 1310.44 1409.56C1310.44 1409.55 1310.44 1409.55 1310.44 1409.55C1310.44 1409.55 1310.44 1409.54 1310.44 1409.54C1310.44 1409.54 1310.44 1409.53 1310.44 1409.53C1310.44 1409.53 1310.44 1409.53 1310.44 1409.52C1310.44 1409.52 1310.44 1409.52 1310.44 1409.52C1310.44 1409.51 1310.44 1409.51 1310.44 1409.51C1310.44 1409.51 1310.44 1409.5 1310.44 1409.5C1310.44 1409.5 1310.44 1409.5 1310.44 1409.49C1310.44 1409.49 1310.44 1409.49 1310.44 1409.49C1310.44 1409.48 1310.44 1409.48 1310.44 1409.48C1310.44 1409.48 1310.44 1409.47 1310.44 1409.47C1310.44 1409.47 1310.44 1409.47 1310.44 1409.46C1310.44 1409.46 1310.44 1409.46 1310.44 1409.46C1310.44 1409.45 1310.44 1409.45 1310.44 1409.45C1310.44 1409.44 1310.44 1409.44 1310.44 1409.44C1310.44 1409.44 1310.44 1409.43 1310.44 1409.43C1310.44 1409.43 1310.44 1409.43 1310.44 1409.42C1310.44 1409.42 1310.44 1409.42 1310.44 1409.42C1310.44 1409.41 1310.44 1409.41 1310.44 1409.41C1310.44 1409.41 1310.44 1409.4 1310.44 1409.4C1310.44 1409.4 1310.44 1409.4 1310.44 1409.39C1310.44 1409.39 1310.44 1409.39 1310.44 1409.39C1310.44 1409.38 1310.44 1409.38 1310.44 1409.38C1310.44 1409.38 1310.44 1409.37 1310.44 1409.37C1310.44 1409.37 1310.44 1409.37 1310.44 1409.36C1310.44 1409.36 1310.44 1409.36 1310.44 1409.35C1310.44 1409.35 1310.44 1409.35 1310.44 1409.35C1310.44 1409.34 1310.44 1409.34 1310.44 1409.34C1310.44 1409.34 1310.44 1409.33 1310.44 1409.33C1310.44 1409.33 1310.44 1409.33 1310.44 1409.32C1310.44 1409.32 1310.44 1409.32 1310.44 1409.32C1310.44 1409.31 1310.44 1409.31 1310.44 1409.31C1310.44 1409.31 1310.44 1409.3 1310.44 1409.3C1310.44 1409.3 1310.44 1409.3 1310.44 1409.29C1310.44 1409.29 1310.44 1409.29 1310.44 1409.29C1310.44 1409.28 1310.44 1409.28 1310.44 1409.28C1310.44 1409.28 1310.44 1409.27 1310.44 1409.27C1310.44 1409.27 1310.44 1409.27 1310.44 1409.26C1310.44 1409.26 1310.44 1409.26 1310.44 1409.25C1310.44 1409.25 1310.44 1409.25 1310.44 1409.25C1310.44 1409.24 1310.44 1409.24 1310.44 1409.24C1310.44 1409.24 1310.44 1409.23 1310.44 1409.23C1310.44 1409.23 1310.44 1409.23 1310.44 1409.22C1310.44 1409.22 1310.44 1409.22 1310.44 1409.22C1310.44 1409.21 1310.44 1409.21 1310.44 1409.21C1310.44 1409.21 1310.44 1409.2 1310.44 1409.2C1310.44 1409.2 1310.44 1409.2 1310.44 1409.19C1310.44 1409.19 1310.44 1409.19 1310.44 1409.19C1310.44 1409.18 1310.44 1409.18 1310.44 1409.18C1310.44 1409.18 1310.44 1409.17 1310.44 1409.17C1310.44 1409.17 1310.44 1409.16 1310.44 1409.16C1310.44 1409.16 1310.44 1409.16 1310.44 1409.15C1310.44 1409.15 1310.44 1409.15 1310.44 1409.15C1310.44 1409.14 1310.44 1409.14 1310.44 1409.14C1310.44 1409.14 1310.44 1409.13 1310.44 1409.13C1310.44 1409.13 1310.44 1409.13 1310.44 1409.12C1310.44 1409.12 1310.44 1409.12 1310.44 1409.12C1310.44 1409.11 1310.44 1409.11 1310.44 1409.11C1310.44 1409.11 1310.44 1409.1 1310.44 1409.1C1310.44 1409.1 1310.44 1409.1 1310.44 1409.09C1310.44 1409.09 1310.44 1409.09 1310.44 1409.09C1310.44 1409.08 1310.44 1409.08 1310.44 1409.08C1310.44 1409.07 1310.44 1409.07 1310.44 1409.07C1310.44 1409.07 1310.44 1409.06 1310.44 1409.06C1310.44 1409.06 1310.44 1409.06 1310.44 1409.05C1310.44 1409.05 1310.44 1409.05 1310.44 1409.05C1310.44 1409.04 1310.44 1409.04 1310.44 1409.04C1310.44 1409.04 1310.44 1409.03 1310.44 1409.03C1310.44 1409.03 1310.44 1409.03 1310.44 1409.02C1310.44 1409.02 1310.44 1409.02 1310.44 1409.02C1310.44 1409.01 1310.44 1409.01 1310.44 1409.01C1310.44 1409.01 1310.44 1409 1310.44 1409C1310.44 1409 1310.44 1409 1310.44 1408.99C1310.44 1408.99 1310.44 1408.99 1310.44 1408.98C1310.44 1408.98 1310.44 1408.98 1310.44 1408.98C1310.44 1408.97 1310.44 1408.97 1310.44 1408.97C1310.44 1408.97 1310.44 1408.96 1310.44 1408.96C1310.44 1408.96 1310.44 1408.96 1310.44 1408.95C1310.44 1408.95 1310.44 1408.95 1310.44 1408.95C1310.44 1408.94 1310.44 1408.94 1310.44 1408.94C1310.44 1408.94 1310.44 1408.93 1310.44 1408.93C1310.44 1408.93 1310.44 1408.93 1310.44 1408.92C1310.44 1408.92 1310.44 1408.92 1310.44 1408.92C1310.44 1408.91 1310.44 1408.91 1310.44 1408.91C1310.44 1408.91 1310.44 1408.9 1310.44 1408.9C1310.44 1408.9 1310.44 1408.9 1310.44 1408.89C1310.44 1408.89 1310.44 1408.89 1310.44 1408.88C1310.44 1408.88 1310.44 1408.88 1310.44 1408.88C1310.44 1408.87 1310.44 1408.87 1310.44 1408.87C1310.44 1408.87 1310.44 1408.86 1310.44 1408.86C1310.44 1408.86 1310.44 1408.86 1310.44 1408.85C1310.44 1408.85 1310.44 1408.85 1310.44 1408.85C1310.44 1408.84 1310.44 1408.84 1310.44 1408.84C1310.44 1408.84 1310.44 1408.83 1310.44 1408.83C1310.44 1408.83 1310.44 1408.83 1310.44 1408.82C1310.44 1408.82 1310.44 1408.82 1310.44 1408.82C1310.44 1408.81 1310.44 1408.81 1310.44 1408.81C1310.44 1408.81 1310.44 1408.8 1310.44 1408.8C1310.44 1408.8 1310.44 1408.79 1310.44 1408.79C1310.44 1408.79 1310.44 1408.79 1310.44 1408.78C1310.44 1408.78 1310.44 1408.78 1310.44 1408.78C1310.44 1408.77 1310.44 1408.77 1310.44 1408.77C1310.44 1408.77 1310.44 1408.76 1310.44 1408.76C1310.44 1408.76 1310.44 1408.76 1310.44 1408.75C1310.44 1408.75 1310.44 1408.75 1310.44 1408.75C1310.44 1408.74 1310.44 1408.74 1310.44 1408.74C1310.44 1408.74 1310.44 1408.73 1310.44 1408.73C1310.44 1408.73 1310.44 1408.73 1310.44 1408.72C1310.44 1408.72 1310.44 1408.72 1310.44 1408.72C1310.44 1408.71 1310.44 1408.71 1310.44 1408.71C1310.44 1408.7 1310.44 1408.7 1310.44 1408.7C1310.44 1408.7 1310.44 1408.69 1310.44 1408.69C1310.44 1408.69 1310.44 1408.69 1310.44 1408.68C1310.44 1408.68 1310.44 1408.68 1310.44 1408.68C1310.44 1408.67 1310.44 1408.67 1310.44 1408.67C1310.44 1408.67 1310.44 1408.66 1310.44 1408.66C1310.44 1408.66 1310.44 1408.66 1310.44 1408.65C1310.44 1408.65 1310.44 1408.65 1310.44 1408.65C1310.44 1408.64 1310.44 1408.64 1310.44 1408.64C1310.44 1408.64 1310.44 1408.63 1310.44 1408.63C1310.44 1408.63 1310.44 1408.63 1310.44 1408.62C1310.44 1408.62 1310.44 1408.62 1310.44 1408.61C1310.44 1408.61 1310.44 1408.61 1310.44 1408.61C1310.44 1408.6 1310.44 1408.6 1310.44 1408.6H1306.44C1306.44 1408.6 1306.44 1408.6 1306.44 1408.61C1306.44 1408.61 1306.44 1408.61 1306.44 1408.61C1306.44 1408.62 1306.44 1408.62 1306.44 1408.62C1306.44 1408.63 1306.44 1408.63 1306.44 1408.63C1306.44 1408.63 1306.44 1408.64 1306.44 1408.64C1306.44 1408.64 1306.44 1408.64 1306.44 1408.65C1306.44 1408.65 1306.44 1408.65 1306.44 1408.65C1306.44 1408.66 1306.44 1408.66 1306.44 1408.66C1306.44 1408.66 1306.44 1408.67 1306.44 1408.67C1306.44 1408.67 1306.44 1408.67 1306.44 1408.68C1306.44 1408.68 1306.44 1408.68 1306.44 1408.68C1306.44 1408.69 1306.44 1408.69 1306.44 1408.69C1306.44 1408.69 1306.44 1408.7 1306.44 1408.7C1306.44 1408.7 1306.44 1408.7 1306.44 1408.71C1306.44 1408.71 1306.44 1408.71 1306.44 1408.72C1306.44 1408.72 1306.44 1408.72 1306.44 1408.72C1306.44 1408.73 1306.44 1408.73 1306.44 1408.73C1306.44 1408.73 1306.44 1408.74 1306.44 1408.74C1306.44 1408.74 1306.44 1408.74 1306.44 1408.75C1306.44 1408.75 1306.44 1408.75 1306.44 1408.75C1306.44 1408.76 1306.44 1408.76 1306.44 1408.76C1306.44 1408.76 1306.44 1408.77 1306.44 1408.77C1306.44 1408.77 1306.44 1408.77 1306.44 1408.78C1306.44 1408.78 1306.44 1408.78 1306.44 1408.78C1306.44 1408.79 1306.44 1408.79 1306.44 1408.79C1306.44 1408.79 1306.44 1408.8 1306.44 1408.8C1306.44 1408.8 1306.44 1408.81 1306.44 1408.81C1306.44 1408.81 1306.44 1408.81 1306.44 1408.82C1306.44 1408.82 1306.44 1408.82 1306.44 1408.82C1306.44 1408.83 1306.44 1408.83 1306.44 1408.83C1306.44 1408.83 1306.44 1408.84 1306.44 1408.84C1306.44 1408.84 1306.44 1408.84 1306.44 1408.85C1306.44 1408.85 1306.44 1408.85 1306.44 1408.85C1306.44 1408.86 1306.44 1408.86 1306.44 1408.86C1306.44 1408.86 1306.44 1408.87 1306.44 1408.87C1306.44 1408.87 1306.44 1408.87 1306.44 1408.88C1306.44 1408.88 1306.44 1408.88 1306.44 1408.88C1306.44 1408.89 1306.44 1408.89 1306.44 1408.89C1306.44 1408.9 1306.44 1408.9 1306.44 1408.9C1306.44 1408.9 1306.44 1408.91 1306.44 1408.91C1306.44 1408.91 1306.44 1408.91 1306.44 1408.92C1306.44 1408.92 1306.44 1408.92 1306.44 1408.92C1306.44 1408.93 1306.44 1408.93 1306.44 1408.93C1306.44 1408.93 1306.44 1408.94 1306.44 1408.94C1306.44 1408.94 1306.44 1408.94 1306.44 1408.95C1306.44 1408.95 1306.44 1408.95 1306.44 1408.95C1306.44 1408.96 1306.44 1408.96 1306.44 1408.96C1306.44 1408.96 1306.44 1408.97 1306.44 1408.97C1306.44 1408.97 1306.44 1408.97 1306.44 1408.98C1306.44 1408.98 1306.44 1408.98 1306.44 1408.98C1306.44 1408.99 1306.44 1408.99 1306.44 1408.99C1306.44 1409 1306.44 1409 1306.44 1409C1306.44 1409 1306.44 1409.01 1306.44 1409.01C1306.44 1409.01 1306.44 1409.01 1306.44 1409.02C1306.44 1409.02 1306.44 1409.02 1306.44 1409.02C1306.44 1409.03 1306.44 1409.03 1306.44 1409.03C1306.44 1409.03 1306.44 1409.04 1306.44 1409.04C1306.44 1409.04 1306.44 1409.04 1306.44 1409.05C1306.44 1409.05 1306.44 1409.05 1306.44 1409.05C1306.44 1409.06 1306.44 1409.06 1306.44 1409.06C1306.44 1409.06 1306.44 1409.07 1306.44 1409.07C1306.44 1409.07 1306.44 1409.07 1306.44 1409.08C1306.44 1409.08 1306.44 1409.08 1306.44 1409.09C1306.44 1409.09 1306.44 1409.09 1306.44 1409.09C1306.44 1409.1 1306.44 1409.1 1306.44 1409.1C1306.44 1409.1 1306.44 1409.11 1306.44 1409.11C1306.44 1409.11 1306.44 1409.11 1306.44 1409.12C1306.44 1409.12 1306.44 1409.12 1306.44 1409.12C1306.44 1409.13 1306.44 1409.13 1306.44 1409.13C1306.44 1409.13 1306.44 1409.14 1306.44 1409.14C1306.44 1409.14 1306.44 1409.14 1306.44 1409.15C1306.44 1409.15 1306.44 1409.15 1306.44 1409.15C1306.44 1409.16 1306.44 1409.16 1306.44 1409.16C1306.44 1409.16 1306.44 1409.17 1306.44 1409.17C1306.44 1409.17 1306.44 1409.18 1306.44 1409.18C1306.44 1409.18 1306.44 1409.18 1306.44 1409.19C1306.44 1409.19 1306.44 1409.19 1306.44 1409.19C1306.44 1409.2 1306.44 1409.2 1306.44 1409.2C1306.44 1409.2 1306.44 1409.21 1306.44 1409.21C1306.44 1409.21 1306.44 1409.21 1306.44 1409.22C1306.44 1409.22 1306.44 1409.22 1306.44 1409.22C1306.44 1409.23 1306.44 1409.23 1306.44 1409.23C1306.44 1409.23 1306.44 1409.24 1306.44 1409.24C1306.44 1409.24 1306.44 1409.24 1306.44 1409.25C1306.44 1409.25 1306.44 1409.25 1306.44 1409.25C1306.44 1409.26 1306.44 1409.26 1306.44 1409.26C1306.44 1409.27 1306.44 1409.27 1306.44 1409.27C1306.44 1409.27 1306.44 1409.28 1306.44 1409.28C1306.44 1409.28 1306.44 1409.28 1306.44 1409.29C1306.44 1409.29 1306.44 1409.29 1306.44 1409.29C1306.44 1409.3 1306.44 1409.3 1306.44 1409.3C1306.44 1409.3 1306.44 1409.31 1306.44 1409.31C1306.44 1409.31 1306.44 1409.31 1306.44 1409.32C1306.44 1409.32 1306.44 1409.32 1306.44 1409.32C1306.44 1409.33 1306.44 1409.33 1306.44 1409.33C1306.44 1409.33 1306.44 1409.34 1306.44 1409.34C1306.44 1409.34 1306.44 1409.34 1306.44 1409.35C1306.44 1409.35 1306.44 1409.35 1306.44 1409.35C1306.44 1409.36 1306.44 1409.36 1306.44 1409.36C1306.44 1409.37 1306.44 1409.37 1306.44 1409.37C1306.44 1409.37 1306.44 1409.38 1306.44 1409.38C1306.44 1409.38 1306.44 1409.38 1306.44 1409.39C1306.44 1409.39 1306.44 1409.39 1306.44 1409.39C1306.44 1409.4 1306.44 1409.4 1306.44 1409.4C1306.44 1409.4 1306.44 1409.41 1306.44 1409.41C1306.44 1409.41 1306.44 1409.41 1306.44 1409.42C1306.44 1409.42 1306.44 1409.42 1306.44 1409.42C1306.44 1409.43 1306.44 1409.43 1306.44 1409.43C1306.44 1409.43 1306.44 1409.44 1306.44 1409.44C1306.44 1409.44 1306.44 1409.44 1306.44 1409.45C1306.44 1409.45 1306.44 1409.45 1306.44 1409.46C1306.44 1409.46 1306.44 1409.46 1306.44 1409.46C1306.44 1409.47 1306.44 1409.47 1306.44 1409.47C1306.44 1409.47 1306.44 1409.48 1306.44 1409.48C1306.44 1409.48 1306.44 1409.48 1306.44 1409.49C1306.44 1409.49 1306.44 1409.49 1306.44 1409.49C1306.44 1409.5 1306.44 1409.5 1306.44 1409.5C1306.44 1409.5 1306.44 1409.51 1306.44 1409.51C1306.44 1409.51 1306.44 1409.51 1306.44 1409.52C1306.44 1409.52 1306.44 1409.52 1306.44 1409.52C1306.44 1409.53 1306.44 1409.53 1306.44 1409.53C1306.44 1409.53 1306.44 1409.54 1306.44 1409.54C1306.44 1409.54 1306.44 1409.55 1306.44 1409.55C1306.44 1409.55 1306.44 1409.55 1306.44 1409.56C1306.44 1409.56 1306.44 1409.56 1306.44 1409.56C1306.44 1409.57 1306.44 1409.57 1306.44 1409.57C1306.44 1409.57 1306.44 1409.58 1306.44 1409.58C1306.44 1409.58 1306.44 1409.58 1306.44 1409.59C1306.44 1409.59 1306.44 1409.59 1306.44 1409.59C1306.44 1409.6 1306.44 1409.6 1306.44 1409.6C1306.44 1409.6 1306.44 1409.61 1306.44 1409.61C1306.44 1409.61 1306.44 1409.61 1306.44 1409.62C1306.44 1409.62 1306.44 1409.62 1306.44 1409.62C1306.44 1409.63 1306.44 1409.63 1306.44 1409.63C1306.44 1409.64 1306.44 1409.64 1306.44 1409.64C1306.44 1409.64 1306.44 1409.65 1306.44 1409.65C1306.44 1409.65 1306.44 1409.65 1306.44 1409.66C1306.44 1409.66 1306.44 1409.66 1306.44 1409.66C1306.44 1409.67 1306.44 1409.67 1306.44 1409.67C1306.44 1409.67 1306.44 1409.68 1306.44 1409.68C1306.44 1409.68 1306.44 1409.68 1306.44 1409.69C1306.44 1409.69 1306.44 1409.69 1306.44 1409.69C1306.44 1409.7 1306.44 1409.7 1306.44 1409.7C1306.44 1409.7 1306.44 1409.71 1306.44 1409.71C1306.44 1409.71 1306.44 1409.71 1306.44 1409.72C1306.44 1409.72 1306.44 1409.72 1306.44 1409.72C1306.44 1409.73 1306.44 1409.73 1306.44 1409.73C1306.44 1409.74 1306.44 1409.74 1306.44 1409.74C1306.44 1409.74 1306.44 1409.75 1306.44 1409.75C1306.44 1409.75 1306.44 1409.75 1306.44 1409.76C1306.44 1409.76 1306.44 1409.76 1306.44 1409.76C1306.44 1409.77 1306.44 1409.77 1306.44 1409.77C1306.44 1409.77 1306.44 1409.78 1306.44 1409.78C1306.44 1409.78 1306.44 1409.78 1306.44 1409.79C1306.44 1409.79 1306.44 1409.79 1306.44 1409.79C1306.44 1409.8 1306.44 1409.8 1306.44 1409.8C1306.44 1409.8 1306.44 1409.81 1306.44 1409.81C1306.44 1409.81 1306.44 1409.81 1306.44 1409.82C1306.44 1409.82 1306.44 1409.82 1306.44 1409.83C1306.44 1409.83 1306.44 1409.83 1306.44 1409.83C1306.44 1409.84 1306.44 1409.84 1306.44 1409.84C1306.44 1409.84 1306.44 1409.85 1306.44 1409.85C1306.44 1409.85 1306.44 1409.85 1306.44 1409.86C1306.44 1409.86 1306.44 1409.86 1306.44 1409.86C1306.44 1409.87 1306.44 1409.87 1306.44 1409.87C1306.44 1409.87 1306.44 1409.88 1306.44 1409.88C1306.44 1409.88 1306.44 1409.88 1306.44 1409.89C1306.44 1409.89 1306.44 1409.89 1306.44 1409.89C1306.44 1409.9 1306.44 1409.9 1306.44 1409.9C1306.44 1409.9 1306.44 1409.91 1306.44 1409.91C1306.44 1409.91 1306.44 1409.92 1306.44 1409.92C1306.44 1409.92 1306.44 1409.92 1306.44 1409.93C1306.44 1409.93 1306.44 1409.93 1306.44 1409.93C1306.44 1409.94 1306.44 1409.94 1306.44 1409.94C1306.44 1409.94 1306.44 1409.95 1306.44 1409.95C1306.44 1409.95 1306.44 1409.95 1306.44 1409.96C1306.44 1409.96 1306.44 1409.96 1306.44 1409.96C1306.44 1409.97 1306.44 1409.97 1306.44 1409.97C1306.44 1409.97 1306.44 1409.98 1306.44 1409.98C1306.44 1409.98 1306.44 1409.98 1306.44 1409.99C1306.44 1409.99 1306.44 1409.99 1306.44 1409.99C1306.44 1410 1306.44 1410 1306.44 1410C1306.44 1410.01 1306.44 1410.01 1306.44 1410.01C1306.44 1410.01 1306.44 1410.02 1306.44 1410.02C1306.44 1410.02 1306.44 1410.02 1306.44 1410.03C1306.44 1410.03 1306.44 1410.03 1306.44 1410.03C1306.44 1410.04 1306.44 1410.04 1306.44 1410.04C1306.44 1410.04 1306.44 1410.05 1306.44 1410.05C1306.44 1410.05 1306.44 1410.05 1306.44 1410.06C1306.44 1410.06 1306.44 1410.06 1306.44 1410.06C1306.44 1410.07 1306.44 1410.07 1306.44 1410.07C1306.44 1410.07 1306.44 1410.08 1306.44 1410.08C1306.44 1410.08 1306.44 1410.08 1306.44 1410.09C1306.44 1410.09 1306.44 1410.09 1306.44 1410.09C1306.44 1410.1 1306.44 1410.1 1306.44 1410.1C1306.44 1410.11 1306.44 1410.11 1306.44 1410.11C1306.44 1410.11 1306.44 1410.12 1306.44 1410.12C1306.44 1410.12 1306.44 1410.12 1306.44 1410.13C1306.44 1410.13 1306.44 1410.13 1306.44 1410.13C1306.44 1410.14 1306.44 1410.14 1306.44 1410.14C1306.44 1410.14 1306.44 1410.15 1306.44 1410.15C1306.44 1410.15 1306.44 1410.15 1306.44 1410.16C1306.44 1410.16 1306.44 1410.16 1306.44 1410.16C1306.44 1410.17 1306.44 1410.17 1306.44 1410.17C1306.44 1410.17 1306.44 1410.18 1306.44 1410.18C1306.44 1410.18 1306.44 1410.18 1306.44 1410.19C1306.44 1410.19 1306.44 1410.19 1306.44 1410.2C1306.44 1410.2 1306.44 1410.2 1306.44 1410.2C1306.44 1410.21 1306.44 1410.21 1306.44 1410.21C1306.44 1410.21 1306.44 1410.22 1306.44 1410.22C1306.44 1410.22 1306.44 1410.22 1306.44 1410.23C1306.44 1410.23 1306.44 1410.23 1306.44 1410.23C1306.44 1410.24 1306.44 1410.24 1306.44 1410.24C1306.44 1410.24 1306.44 1410.25 1306.44 1410.25C1306.44 1410.25 1306.44 1410.25 1306.44 1410.26C1306.44 1410.26 1306.44 1410.26 1306.44 1410.26C1306.44 1410.27 1306.44 1410.27 1306.44 1410.27C1306.44 1410.27 1306.44 1410.28 1306.44 1410.28C1306.44 1410.28 1306.44 1410.29 1306.44 1410.29C1306.44 1410.29 1306.44 1410.29 1306.44 1410.3C1306.44 1410.3 1306.44 1410.3 1306.44 1410.3C1306.44 1410.31 1306.44 1410.31 1306.44 1410.31C1306.44 1410.31 1306.44 1410.32 1306.44 1410.32C1306.44 1410.32 1306.44 1410.32 1306.44 1410.33C1306.44 1410.33 1306.44 1410.33 1306.44 1410.33C1306.44 1410.34 1306.44 1410.34 1306.44 1410.34C1306.44 1410.34 1306.44 1410.35 1306.44 1410.35C1306.44 1410.35 1306.44 1410.35 1306.44 1410.36C1306.44 1410.36 1306.44 1410.36 1306.44 1410.36C1306.44 1410.37 1306.44 1410.37 1306.44 1410.37C1306.44 1410.38 1306.44 1410.38 1306.44 1410.38C1306.44 1410.38 1306.44 1410.39 1306.44 1410.39C1306.44 1410.39 1306.44 1410.39 1306.44 1410.4C1306.44 1410.4 1306.44 1410.4 1306.44 1410.4C1306.44 1410.41 1306.44 1410.41 1306.44 1410.41C1306.44 1410.41 1306.44 1410.42 1306.44 1410.42C1306.44 1410.42 1306.44 1410.42 1306.44 1410.43C1306.44 1410.43 1306.44 1410.43 1306.44 1410.43C1306.44 1410.44 1306.44 1410.44 1306.44 1410.44C1306.44 1410.44 1306.44 1410.45 1306.44 1410.45C1306.44 1410.45 1306.44 1410.45 1306.44 1410.46C1306.44 1410.46 1306.44 1410.46 1306.44 1410.46C1306.44 1410.47 1306.44 1410.47 1306.44 1410.47C1306.44 1410.48 1306.44 1410.48 1306.44 1410.48C1306.44 1410.48 1306.44 1410.49 1306.44 1410.49C1306.44 1410.49 1306.44 1410.49 1306.44 1410.5C1306.44 1410.5 1306.44 1410.5 1306.44 1410.5C1306.44 1410.51 1306.44 1410.51 1306.44 1410.51C1306.44 1410.51 1306.44 1410.52 1306.44 1410.52C1306.44 1410.52 1306.44 1410.52 1306.44 1410.53C1306.44 1410.53 1306.44 1410.53 1306.44 1410.53C1306.44 1410.54 1306.44 1410.54 1306.44 1410.54C1306.44 1410.54 1306.44 1410.55 1306.44 1410.55C1306.44 1410.55 1306.44 1410.55 1306.44 1410.56C1306.44 1410.56 1306.44 1410.56 1306.44 1410.57C1306.44 1410.57 1306.44 1410.57 1306.44 1410.57C1306.44 1410.58 1306.44 1410.58 1306.44 1410.58C1306.44 1410.58 1306.44 1410.59 1306.44 1410.59C1306.44 1410.59 1306.44 1410.59 1306.44 1410.6C1306.44 1410.6 1306.44 1410.6 1306.44 1410.6C1306.44 1410.61 1306.44 1410.61 1306.44 1410.61C1306.44 1410.61 1306.44 1410.62 1306.44 1410.62C1306.44 1410.62 1306.44 1410.62 1306.44 1410.63C1306.44 1410.63 1306.44 1410.63 1306.44 1410.63C1306.44 1410.64 1306.44 1410.64 1306.44 1410.64C1306.44 1410.64 1306.44 1410.65 1306.44 1410.65C1306.44 1410.65 1306.44 1410.66 1306.44 1410.66C1306.44 1410.66 1306.44 1410.66 1306.44 1410.67C1306.44 1410.67 1306.44 1410.67 1306.44 1410.67C1306.44 1410.68 1306.44 1410.68 1306.44 1410.68C1306.44 1410.68 1306.44 1410.69 1306.44 1410.69C1306.44 1410.69 1306.44 1410.69 1306.44 1410.7C1306.44 1410.7 1306.44 1410.7 1306.44 1410.7C1306.44 1410.71 1306.44 1410.71 1306.44 1410.71C1306.44 1410.71 1306.44 1410.72 1306.44 1410.72C1306.44 1410.72 1306.44 1410.72 1306.44 1410.73C1306.44 1410.73 1306.44 1410.73 1306.44 1410.73C1306.44 1410.74 1306.44 1410.74 1306.44 1410.74C1306.44 1410.74 1306.44 1410.75 1306.44 1410.75C1306.44 1410.75 1306.44 1410.76 1306.44 1410.76C1306.44 1410.76 1306.44 1410.76 1306.44 1410.77C1306.44 1410.77 1306.44 1410.77 1306.44 1410.77C1306.44 1410.78 1306.44 1410.78 1306.44 1410.78C1306.44 1410.78 1306.44 1410.79 1306.44 1410.79C1306.44 1410.79 1306.44 1410.79 1306.44 1410.8C1306.44 1410.8 1306.44 1410.8 1306.44 1410.8C1306.44 1410.81 1306.44 1410.81 1306.44 1410.81C1306.44 1410.81 1306.44 1410.82 1306.44 1410.82C1306.44 1410.82 1306.44 1410.82 1306.44 1410.83C1306.44 1410.83 1306.44 1410.83 1306.44 1410.83C1306.44 1410.84 1306.44 1410.84 1306.44 1410.84C1306.44 1410.85 1306.44 1410.85 1306.44 1410.85C1306.44 1410.85 1306.44 1410.86 1306.44 1410.86C1306.44 1410.86 1306.44 1410.86 1306.44 1410.87C1306.44 1410.87 1306.44 1410.87 1306.44 1410.87C1306.44 1410.88 1306.44 1410.88 1306.44 1410.88C1306.44 1410.88 1306.44 1410.89 1306.44 1410.89C1306.44 1410.89 1306.44 1410.89 1306.44 1410.9C1306.44 1410.9 1306.44 1410.9 1306.44 1410.9C1306.44 1410.91 1306.44 1410.91 1306.44 1410.91C1306.44 1410.91 1306.44 1410.92 1306.44 1410.92C1306.44 1410.92 1306.44 1410.92 1306.44 1410.93C1306.44 1410.93 1306.44 1410.93 1306.44 1410.94C1306.44 1410.94 1306.44 1410.94 1306.44 1410.94C1306.44 1410.95 1306.44 1410.95 1306.44 1410.95C1306.44 1410.95 1306.44 1410.96 1306.44 1410.96C1306.44 1410.96 1306.44 1410.96 1306.44 1410.97C1306.44 1410.97 1306.44 1410.97 1306.44 1410.97C1306.44 1410.98 1306.44 1410.98 1306.44 1410.98C1306.44 1410.98 1306.44 1410.99 1306.44 1410.99C1306.44 1410.99 1306.44 1410.99 1306.44 1411C1306.44 1411 1306.44 1411 1306.44 1411C1306.44 1411.01 1306.44 1411.01 1306.44 1411.01C1306.44 1411.01 1306.44 1411.02 1306.44 1411.02C1306.44 1411.02 1306.44 1411.03 1306.44 1411.03C1306.44 1411.03 1306.44 1411.03 1306.44 1411.04C1306.44 1411.04 1306.44 1411.04 1306.44 1411.04C1306.44 1411.05 1306.44 1411.05 1306.44 1411.05C1306.44 1411.05 1306.44 1411.06 1306.44 1411.06C1306.44 1411.06 1306.44 1411.06 1306.44 1411.07C1306.44 1411.07 1306.44 1411.07 1306.44 1411.07C1306.44 1411.08 1306.44 1411.08 1306.44 1411.08C1306.44 1411.08 1306.44 1411.09 1306.44 1411.09C1306.44 1411.09 1306.44 1411.09 1306.44 1411.1C1306.44 1411.1 1306.44 1411.1 1306.44 1411.1C1306.44 1411.11 1306.44 1411.11 1306.44 1411.11C1306.44 1411.11 1306.44 1411.12 1306.44 1411.12C1306.44 1411.12 1306.44 1411.13 1306.44 1411.13C1306.44 1411.13 1306.44 1411.13 1306.44 1411.14C1306.44 1411.14 1306.44 1411.14 1306.44 1411.14C1306.44 1411.15 1306.44 1411.15 1306.44 1411.15C1306.44 1411.15 1306.44 1411.16 1306.44 1411.16C1306.44 1411.16 1306.44 1411.16 1306.44 1411.17C1306.44 1411.17 1306.44 1411.17 1306.44 1411.17C1306.44 1411.18 1306.44 1411.18 1306.44 1411.18C1306.44 1411.18 1306.44 1411.19 1306.44 1411.19C1306.44 1411.19 1306.44 1411.19 1306.44 1411.2C1306.44 1411.2 1306.44 1411.2 1306.44 1411.2C1306.44 1411.21 1306.44 1411.21 1306.44 1411.21C1306.44 1411.22 1306.44 1411.22 1306.44 1411.22C1306.44 1411.22 1306.44 1411.23 1306.44 1411.23C1306.44 1411.23 1306.44 1411.23 1306.44 1411.24C1306.44 1411.24 1306.44 1411.24 1306.44 1411.24C1306.44 1411.25 1306.44 1411.25 1306.44 1411.25C1306.44 1411.25 1306.44 1411.26 1306.44 1411.26C1306.44 1411.26 1306.44 1411.26 1306.44 1411.27C1306.44 1411.27 1306.44 1411.27 1306.44 1411.27C1306.44 1411.28 1306.44 1411.28 1306.44 1411.28C1306.44 1411.28 1306.44 1411.29 1306.44 1411.29C1306.44 1411.29 1306.44 1411.29 1306.44 1411.3C1306.44 1411.3 1306.44 1411.3 1306.44 1411.31C1306.44 1411.31 1306.44 1411.31 1306.44 1411.31C1306.44 1411.32 1306.44 1411.32 1306.44 1411.32C1306.44 1411.32 1306.44 1411.33 1306.44 1411.33C1306.44 1411.33 1306.44 1411.33 1306.44 1411.34C1306.44 1411.34 1306.44 1411.34 1306.44 1411.34C1306.44 1411.35 1306.44 1411.35 1306.44 1411.35C1306.44 1411.35 1306.44 1411.36 1306.44 1411.36C1306.44 1411.36 1306.44 1411.36 1306.44 1411.37C1306.44 1411.37 1306.44 1411.37 1306.44 1411.37C1306.44 1411.38 1306.44 1411.38 1306.44 1411.38C1306.44 1411.38 1306.44 1411.39 1306.44 1411.39C1306.44 1411.39 1306.44 1411.39 1306.44 1411.4C1306.44 1411.4 1306.44 1411.4 1306.44 1411.41C1306.44 1411.41 1306.44 1411.41 1306.44 1411.41C1306.44 1411.42 1306.44 1411.42 1306.44 1411.42C1306.44 1411.42 1306.44 1411.43 1306.44 1411.43C1306.44 1411.43 1306.44 1411.43 1306.44 1411.44C1306.44 1411.44 1306.44 1411.44 1306.44 1411.44C1306.44 1411.45 1306.44 1411.45 1306.44 1411.45C1306.44 1411.45 1306.44 1411.46 1306.44 1411.46C1306.44 1411.46 1306.44 1411.46 1306.44 1411.47C1306.44 1411.47 1306.44 1411.47 1306.44 1411.47C1306.44 1411.48 1306.44 1411.48 1306.44 1411.48C1306.44 1411.48 1306.44 1411.49 1306.44 1411.49C1306.44 1411.49 1306.44 1411.5 1306.44 1411.5C1306.44 1411.5 1306.44 1411.5 1306.44 1411.51C1306.44 1411.51 1306.44 1411.51 1306.44 1411.51C1306.44 1411.52 1306.44 1411.52 1306.44 1411.52C1306.44 1411.52 1306.44 1411.53 1306.44 1411.53C1306.44 1411.53 1306.44 1411.53 1306.44 1411.54C1306.44 1411.54 1306.44 1411.54 1306.44 1411.54C1306.44 1411.55 1306.44 1411.55 1306.44 1411.55C1306.44 1411.55 1306.44 1411.56 1306.44 1411.56C1306.44 1411.56 1306.44 1411.56 1306.44 1411.57C1306.44 1411.57 1306.44 1411.57 1306.44 1411.57C1306.44 1411.58 1306.44 1411.58 1306.44 1411.58C1306.44 1411.59 1306.44 1411.59 1306.44 1411.59C1306.44 1411.59 1306.44 1411.6 1306.44 1411.6C1306.44 1411.6 1306.44 1411.6 1306.44 1411.61C1306.44 1411.61 1306.44 1411.61 1306.44 1411.61C1306.44 1411.62 1306.44 1411.62 1306.44 1411.62C1306.44 1411.62 1306.44 1411.63 1306.44 1411.63C1306.44 1411.63 1306.44 1411.63 1306.44 1411.64C1306.44 1411.64 1306.44 1411.64 1306.44 1411.64C1306.44 1411.65 1306.44 1411.65 1306.44 1411.65C1306.44 1411.65 1306.44 1411.66 1306.44 1411.66C1306.44 1411.66 1306.44 1411.66 1306.44 1411.67C1306.44 1411.67 1306.44 1411.67 1306.44 1411.68C1306.44 1411.68 1306.44 1411.68 1306.44 1411.68C1306.44 1411.69 1306.44 1411.69 1306.44 1411.69C1306.44 1411.69 1306.44 1411.7 1306.44 1411.7C1306.44 1411.7 1306.44 1411.7 1306.44 1411.71C1306.44 1411.71 1306.44 1411.71 1306.44 1411.71C1306.44 1411.72 1306.44 1411.72 1306.44 1411.72C1306.44 1411.72 1306.44 1411.73 1306.44 1411.73C1306.44 1411.73 1306.44 1411.73 1306.44 1411.74C1306.44 1411.74 1306.44 1411.74 1306.44 1411.74C1306.44 1411.75 1306.44 1411.75 1306.44 1411.75C1306.44 1411.75 1306.44 1411.76 1306.44 1411.76C1306.44 1411.76 1306.44 1411.76 1306.44 1411.77C1306.44 1411.77 1306.44 1411.77 1306.44 1411.78C1306.44 1411.78 1306.44 1411.78 1306.44 1411.78C1306.44 1411.79 1306.44 1411.79 1306.44 1411.79C1306.44 1411.79 1306.44 1411.8 1306.44 1411.8C1306.44 1411.8 1306.44 1411.8 1306.44 1411.81C1306.44 1411.81 1306.44 1411.81 1306.44 1411.81C1306.44 1411.82 1306.44 1411.82 1306.44 1411.82C1306.44 1411.82 1306.44 1411.83 1306.44 1411.83C1306.44 1411.83 1306.44 1411.83 1306.44 1411.84C1306.44 1411.84 1306.44 1411.84 1306.44 1411.84C1306.44 1411.85 1306.44 1411.85 1306.44 1411.85C1306.44 1411.85 1306.44 1411.86 1306.44 1411.86C1306.44 1411.86 1306.44 1411.87 1306.44 1411.87C1306.44 1411.87 1306.44 1411.87 1306.44 1411.88C1306.44 1411.88 1306.44 1411.88 1306.44 1411.88C1306.44 1411.89 1306.44 1411.89 1306.44 1411.89C1306.44 1411.89 1306.44 1411.9 1306.44 1411.9C1306.44 1411.9 1306.44 1411.9 1306.44 1411.91C1306.44 1411.91 1306.44 1411.91 1306.44 1411.91C1306.44 1411.92 1306.44 1411.92 1306.44 1411.92C1306.44 1411.92 1306.44 1411.93 1306.44 1411.93C1306.44 1411.93 1306.44 1411.93 1306.44 1411.94C1306.44 1411.94 1306.44 1411.94 1306.44 1411.94C1306.44 1411.95 1306.44 1411.95 1306.44 1411.95C1306.44 1411.96 1306.44 1411.96 1306.44 1411.96C1306.44 1411.96 1306.44 1411.97 1306.44 1411.97C1306.44 1411.97 1306.44 1411.97 1306.44 1411.98C1306.44 1411.98 1306.44 1411.98 1306.44 1411.98C1306.44 1411.99 1306.44 1411.99 1306.44 1411.99C1306.44 1411.99 1306.44 1412 1306.44 1412C1306.44 1412 1306.44 1412 1306.44 1412.01C1306.44 1412.01 1306.44 1412.01 1306.44 1412.01C1306.44 1412.02 1306.44 1412.02 1306.44 1412.02C1306.44 1412.02 1306.44 1412.03 1306.44 1412.03C1306.44 1412.03 1306.44 1412.03 1306.44 1412.04C1306.44 1412.04 1306.44 1412.04 1306.44 1412.05C1306.44 1412.05 1306.44 1412.05 1306.44 1412.05C1306.44 1412.06 1306.44 1412.06 1306.44 1412.06C1306.44 1412.06 1306.44 1412.07 1306.44 1412.07C1306.44 1412.07 1306.44 1412.07 1306.44 1412.08C1306.44 1412.08 1306.44 1412.08 1306.44 1412.08C1306.44 1412.09 1306.44 1412.09 1306.44 1412.09C1306.44 1412.09 1306.44 1412.1 1306.44 1412.1C1306.44 1412.1 1306.44 1412.1 1306.44 1412.11C1306.44 1412.11 1306.44 1412.11 1306.44 1412.11C1306.44 1412.12 1306.44 1412.12 1306.44 1412.12C1306.44 1412.12 1306.44 1412.13 1306.44 1412.13C1306.44 1412.13 1306.44 1412.13 1306.44 1412.14C1306.44 1412.14 1306.44 1412.14 1306.44 1412.15C1306.44 1412.15 1306.44 1412.15 1306.44 1412.15C1306.44 1412.16 1306.44 1412.16 1306.44 1412.16C1306.44 1412.16 1306.44 1412.17 1306.44 1412.17C1306.44 1412.17 1306.44 1412.17 1306.44 1412.18C1306.44 1412.18 1306.44 1412.18 1306.44 1412.18C1306.44 1412.19 1306.44 1412.19 1306.44 1412.19C1306.44 1412.19 1306.44 1412.2 1306.44 1412.2C1306.44 1412.2 1306.44 1412.2 1306.44 1412.21C1306.44 1412.21 1306.44 1412.21 1306.44 1412.21C1306.44 1412.22 1306.44 1412.22 1306.44 1412.22C1306.44 1412.22 1306.44 1412.23 1306.44 1412.23C1306.44 1412.23 1306.44 1412.24 1306.44 1412.24C1306.44 1412.24 1306.44 1412.24 1306.44 1412.25C1306.44 1412.25 1306.44 1412.25 1306.44 1412.25C1306.44 1412.26 1306.44 1412.26 1306.44 1412.26C1306.44 1412.26 1306.44 1412.27 1306.44 1412.27C1306.44 1412.27 1306.44 1412.27 1306.44 1412.28C1306.44 1412.28 1306.44 1412.28 1306.44 1412.28C1306.44 1412.29 1306.44 1412.29 1306.44 1412.29C1306.44 1412.29 1306.44 1412.3 1306.44 1412.3C1306.44 1412.3 1306.44 1412.3 1306.44 1412.31C1306.44 1412.31 1306.44 1412.31 1306.44 1412.31C1306.44 1412.32 1306.44 1412.32 1306.44 1412.32C1306.44 1412.33 1306.44 1412.33 1306.44 1412.33C1306.44 1412.33 1306.44 1412.34 1306.44 1412.34C1306.44 1412.34 1306.44 1412.34 1306.44 1412.35C1306.44 1412.35 1306.44 1412.35 1306.44 1412.35C1306.44 1412.36 1306.44 1412.36 1306.44 1412.36C1306.44 1412.36 1306.44 1412.37 1306.44 1412.37C1306.44 1412.37 1306.44 1412.37 1306.44 1412.38C1306.44 1412.38 1306.44 1412.38 1306.44 1412.38C1306.44 1412.39 1306.44 1412.39 1306.44 1412.39C1306.44 1412.39 1306.44 1412.4 1306.44 1412.4C1306.44 1412.4 1306.44 1412.4 1306.44 1412.41C1306.44 1412.41 1306.44 1412.41 1306.44 1412.41C1306.44 1412.42 1306.44 1412.42 1306.44 1412.42C1306.44 1412.43 1306.44 1412.43 1306.44 1412.43C1306.44 1412.43 1306.44 1412.44 1306.44 1412.44C1306.44 1412.44 1306.44 1412.44 1306.44 1412.45C1306.44 1412.45 1306.44 1412.45 1306.44 1412.45C1306.44 1412.46 1306.44 1412.46 1306.44 1412.46C1306.44 1412.46 1306.44 1412.47 1306.44 1412.47C1306.44 1412.47 1306.44 1412.47 1306.44 1412.48C1306.44 1412.48 1306.44 1412.48 1306.44 1412.48C1306.44 1412.49 1306.44 1412.49 1306.44 1412.49C1306.44 1412.49 1306.44 1412.5 1306.44 1412.5C1306.44 1412.5 1306.44 1412.5 1306.44 1412.51C1306.44 1412.51 1306.44 1412.51 1306.44 1412.52C1306.44 1412.52 1306.44 1412.52 1306.44 1412.52C1306.44 1412.53 1306.44 1412.53 1306.44 1412.53C1306.44 1412.53 1306.44 1412.54 1306.44 1412.54C1306.44 1412.54 1306.44 1412.54 1306.44 1412.55H1310.44ZM1310.27 1407.78C1275.82 1330.9 1223.83 1263.08 1158.44 1209.72L1155.91 1212.82C1220.82 1265.79 1272.42 1333.1 1306.62 1409.42L1310.27 1407.78ZM1158.37 1209.66C1119.42 1180.9 1075.56 1159.39 1028.92 1146.2L1027.83 1150.05C1074.01 1163.11 1117.43 1184.4 1155.99 1212.88L1158.37 1209.66ZM1028.97 1146.21C967.774 1126.87 905.067 1112.61 841.497 1103.6L840.936 1107.56C904.287 1116.54 966.779 1130.75 1027.77 1150.03L1028.97 1146.21ZM841.512 1103.61C740.327 1088.51 638.127 1081.17 535.814 1081.66L535.833 1085.66C637.943 1085.17 739.938 1092.5 840.922 1107.56L841.512 1103.61ZM535.824 1081.66H528.998V1085.66H535.824V1081.66ZM530.449 1085.03L537.935 1077.14L535.032 1074.39L527.547 1082.28L530.449 1085.03ZM537.915 1077.16C603.013 1010.47 659.078 935.584 704.685 854.417L701.198 852.458C655.762 933.32 599.907 1007.92 535.052 1074.37L537.915 1077.16ZM704.685 854.417C722.075 823.481 735.666 790.573 745.162 756.403L741.308 755.332C731.898 789.191 718.431 821.801 701.198 852.457L704.685 854.417ZM745.18 756.333C755.434 713.53 754.672 668.842 742.962 626.411L739.106 627.475C750.636 669.254 751.387 713.256 741.29 755.401L745.18 756.333ZM742.972 626.451C734.699 593.866 722.437 562.417 706.464 532.809L702.943 534.708C718.761 564.027 730.903 595.169 739.095 627.435L742.972 626.451ZM706.354 532.63C704.818 530.382 703.725 527.864 703.133 525.211L699.229 526.082C699.932 529.232 701.229 532.22 703.052 534.887L706.354 532.63ZM699.198 525.905C702.969 554.844 709.094 583.498 709.971 613.408L713.969 613.291C713.084 583.124 706.879 553.894 703.164 525.388L699.198 525.905ZM709.97 613.402C711.768 681.597 692.683 748.723 655.251 805.859L658.597 808.051C696.475 750.234 715.788 682.307 713.969 613.297L709.97 613.402ZM655.238 805.88C587.55 912.054 514.088 1014.47 435.183 1112.66L438.301 1115.17C517.298 1016.86 590.844 914.327 658.611 808.03L655.238 805.88ZM435.175 1112.67C313.445 1266.12 185.328 1415.83 53.0261 1560.95L55.982 1563.65C188.34 1418.47 316.517 1268.68 438.309 1115.16L435.175 1112.67ZM52.9949 1560.99C51.8405 1562.31 50.4342 1563.4 48.8553 1564.19L50.6381 1567.77C52.6863 1566.75 54.5127 1565.34 56.0131 1563.61L52.9949 1560.99ZM48.8553 1564.19C47.2762 1564.97 45.5568 1565.44 43.7959 1565.57L44.0755 1569.56C46.3599 1569.4 48.59 1568.79 50.6381 1567.77L48.8553 1564.19ZM-371.313 1567.44C-372.594 1546.13 -367.951 1524.87 -357.894 1506.01L-361.423 1504.13C-371.827 1523.64 -376.631 1545.63 -375.306 1567.68L-371.313 1567.44ZM-357.883 1505.99C-347.7 1486.36 -331.983 1470.11 -312.66 1459.24L-314.621 1455.75C-334.621 1467 -350.891 1483.82 -361.434 1504.15L-357.883 1505.99ZM-312.611 1459.21C-280.889 1440.16 -245.29 1428.42 -208.421 1424.84L-208.807 1420.86C-246.268 1424.49 -282.438 1436.42 -314.67 1455.78L-312.611 1459.21ZM-208.614 1424.85C-201.383 1424.85 -193.836 1424.86 -186.033 1422.58L-187.157 1418.74C-194.327 1420.84 -201.312 1420.85 -208.614 1420.85V1424.85ZM-185.912 1422.54C-181.833 1421.06 -178.415 1418.18 -176.27 1414.41L-179.746 1412.43C-181.419 1415.37 -184.089 1417.62 -187.278 1418.78L-185.912 1422.54ZM-176.269 1414.41C-142.36 1354.77 -108.884 1294.9 -75.2029 1235.27L-78.6856 1233.31C-112.38 1292.96 -145.839 1352.8 -179.746 1412.43L-176.269 1414.41ZM-75.2017 1235.27L60.6505 994.086L57.1653 992.123L-78.6868 1233.31L-75.2017 1235.27ZM60.6953 994.002C61.9808 991.442 63.4899 988.865 64.8045 986.683L61.3784 984.619C60.0508 986.822 58.4773 989.505 57.1206 992.207L60.6953 994.002ZM-293.555 555.759C-287.402 578.955 -282.322 599.627 -275.928 621.583L-272.088 620.465C-278.464 598.569 -283.512 578.02 -289.689 554.734L-293.555 555.759ZM-275.916 621.623C-247.887 710.919 -199.585 792.588 -134.756 860.302L-131.866 857.535C-196.271 790.266 -244.255 709.133 -272.1 620.425L-275.916 621.623ZM-134.762 860.295C-123.568 872.097 -112.713 884.008 -100.32 895.468L-97.6049 892.531C-109.872 881.187 -120.595 869.419 -131.86 857.542L-134.762 860.295ZM-100.374 895.416C-98.4344 897.348 -97.9212 898.443 -97.9074 899.294C-97.8929 900.188 -98.4131 901.495 -100.474 903.871L-97.4518 906.492C-95.3288 904.044 -93.8673 901.734 -93.9079 899.229C-93.9492 896.682 -95.5277 894.597 -97.5515 892.582L-100.374 895.416ZM-100.621 904.064C-141.331 964.49 -187.54 1021.06 -238.663 1073.05L-235.811 1075.85C-184.516 1023.69 -138.151 966.929 -97.304 906.299L-100.621 904.064ZM-238.639 1073.02C-255.583 1089.68 -265.219 1112.33 -265.439 1136.04L-261.439 1136.08C-261.229 1113.43 -252.025 1091.79 -235.835 1075.88L-238.639 1073.02ZM-265.439 1136.08C-265.14 1168.25 -261.735 1200.32 -255.27 1231.84L-251.352 1231.04C-257.765 1199.77 -261.143 1167.96 -261.439 1136.04L-265.439 1136.08ZM-255.289 1231.73C-252.134 1253.1 -250.083 1274.62 -249.144 1296.21L-245.148 1296.03C-246.092 1274.31 -248.157 1252.65 -251.332 1231.15L-255.289 1231.73ZM-249.142 1296.24C-248.598 1305.15 -250.758 1314.02 -255.342 1321.69L-251.908 1323.74C-246.911 1315.38 -244.556 1305.71 -245.149 1296L-249.142 1296.24ZM-255.342 1321.69C-259.926 1329.36 -266.724 1335.48 -274.85 1339.25L-273.166 1342.88C-264.313 1338.77 -256.906 1332.1 -251.908 1323.74L-255.342 1321.69ZM-274.954 1339.3C-292.271 1348.6 -311.698 1353.3 -331.369 1352.96L-331.439 1356.96C-311.085 1357.32 -290.982 1352.45 -273.062 1342.83L-274.954 1339.3ZM-331.369 1352.96C-351.041 1352.63 -370.293 1347.25 -387.276 1337.37L-389.289 1340.82C-371.714 1351.06 -351.792 1356.61 -331.439 1356.96L-331.369 1352.96ZM-387.341 1337.33C-413.92 1323.15 -437.183 1303.52 -455.605 1279.75L-458.767 1282.2C-439.999 1306.42 -416.3 1326.41 -389.224 1340.86L-387.341 1337.33ZM-455.605 1279.75C-474.026 1255.98 -487.189 1228.59 -494.228 1199.4L-498.116 1200.33C-490.945 1230.08 -477.534 1257.98 -458.767 1282.2L-455.605 1279.75ZM-494.238 1199.35C-511.254 1135.01 -511.254 1067.38 -494.238 1003.04L-498.105 1002.02C-515.298 1067.03 -515.298 1135.37 -498.105 1200.38L-494.238 1199.35ZM-494.212 1002.93C-481.068 938.256 -460.351 875.34 -432.488 815.472L-436.114 813.784C-464.11 873.937 -484.925 937.152 -498.132 1002.13L-494.212 1002.93ZM-432.505 815.508C-418.874 787.703 -402.249 761.373 -387.191 734.029L-390.695 732.1C-405.582 759.132 -422.425 785.861 -436.097 813.747L-432.505 815.508ZM-387.206 734.055L-333.922 640.651L-337.396 638.669L-390.68 732.073L-387.206 734.055ZM-333.899 640.611L-288.762 557.074L-292.281 555.172L-337.418 638.709L-333.899 640.611ZM489.796 1567.89C498.089 1518.56 520.02 1480.07 568.029 1461.55L566.589 1457.82C516.838 1477.01 494.292 1517.02 485.851 1567.23L489.796 1567.89ZM568.017 1461.56C589.959 1453.25 613.239 1448.29 636.355 1441.43L635.216 1437.6C612.535 1444.33 588.696 1449.46 566.601 1457.82L568.017 1461.56ZM636.347 1441.43C638.042 1440.94 639.622 1440.11 640.998 1439.01L638.494 1435.89C637.528 1436.67 636.417 1437.25 635.224 1437.59L636.347 1441.43ZM640.998 1439.01C642.375 1437.9 643.519 1436.54 644.365 1434.99L640.857 1433.07C640.263 1434.16 639.46 1435.11 638.494 1435.89L640.998 1439.01ZM644.447 1434.82C668.586 1378.9 683.509 1319.46 688.641 1258.79L684.655 1258.46C679.56 1318.69 664.743 1377.71 640.775 1433.24L644.447 1434.82ZM688.646 1258.72C689.969 1229.73 689.969 1200.73 690.409 1170.95L686.41 1170.89C685.969 1200.75 685.969 1229.63 684.65 1258.53L688.646 1258.72ZM690.409 1170.92V1157.77H686.409V1170.92H690.409ZM688.369 1159.77C806.412 1162.18 922.667 1167.24 1031.86 1223.79L1033.69 1220.23C923.582 1163.21 806.442 1158.18 688.45 1155.77L688.369 1159.77ZM1030.92 1221.27C1018.75 1251.68 1008.92 1281.3 995.079 1310.39L998.691 1312.11C1012.6 1282.88 1022.58 1252.86 1034.63 1222.75L1030.92 1221.27ZM995.078 1310.39C961.128 1382.1 918.395 1449.34 867.856 1510.6L870.942 1513.14C921.691 1451.64 964.602 1384.11 998.693 1312.1L995.078 1310.39ZM867.828 1510.63C854.194 1527.93 840.119 1545.01 825.819 1561.88L828.87 1564.47C843.194 1547.57 857.301 1530.45 870.97 1513.11L867.828 1510.63ZM825.909 1561.78C823.644 1564.12 820.645 1565.61 817.408 1566.02L817.904 1569.98C822.042 1569.47 825.88 1567.56 828.78 1564.57L825.909 1561.78ZM93.9672 336C81.9099 338.401 67.0784 341.048 52.4941 344.568L53.4328 348.457C67.9126 344.961 82.5859 342.345 94.7485 339.923L93.9672 336ZM52.5762 344.55C31.0203 348.804 10.9822 358.677 -5.49121 373.163L-2.84982 376.167C13.0925 362.148 32.4861 352.592 53.3506 348.475L52.5762 344.55ZM-5.49121 373.163C-21.9648 387.649 -34.2837 406.229 -41.1909 427.007L-37.3951 428.269C-30.712 408.165 -18.792 390.186 -2.84982 376.167L-5.49121 373.163ZM-41.1781 426.97C-43.8134 434.406 -46.5595 441.734 -49.2861 449.028C-52.0104 456.317 -54.7149 463.571 -57.255 470.829L-53.4795 472.15C-50.9553 464.938 -48.265 457.721 -45.5393 450.429C-42.8158 443.143 -40.0569 435.78 -37.4079 428.306L-41.1781 426.97ZM-53.4668 470.867C-64.0842 438.487 -76.5684 406.672 -84.9134 373.433L-88.793 374.407C-80.4041 407.821 -67.7878 440.03 -57.2677 472.113L-53.4668 470.867ZM-84.9814 373.215C-87.621 366.204 -88.7267 358.714 -88.2247 351.243L-92.2158 350.975C-92.756 359.016 -91.5658 367.079 -88.7249 374.624L-84.9814 373.215ZM-88.2247 351.243C-87.7228 343.773 -85.6247 336.495 -82.0706 329.896L-85.5922 328C-89.4171 335.101 -91.6755 342.934 -92.2158 350.975L-88.2247 351.243ZM-82.0706 329.896C-78.5164 323.298 -73.588 317.53 -67.6144 312.98L-70.0381 309.798C-76.4643 314.693 -81.7674 320.898 -85.5922 328L-82.0706 329.896ZM-67.6144 312.98C-61.6408 308.43 -54.7596 305.203 -47.4312 303.514L-48.3297 299.616C-56.2105 301.432 -63.6118 304.903 -70.0381 309.798L-67.6144 312.98ZM-47.4678 303.522C-34.2383 300.733 -20.569 300.733 -7.33945 303.522L-6.51425 299.608C-20.288 296.704 -34.5193 296.704 -48.293 299.608L-47.4678 303.522ZM-7.4393 303.498C8.1192 307.622 23.334 312.939 38.0681 319.402L39.6749 315.739C24.7522 309.193 9.34283 303.808 -6.4144 299.632L-7.4393 303.498ZM38.1958 319.453C57.1155 326.244 76.0244 333.469 93.6582 340.054L95.0576 336.307C77.4622 329.736 58.4988 322.491 39.5472 315.688L38.1958 319.453ZM228.931 635.785C218.924 626.469 210.836 617.986 201.951 610.908L199.459 614.037C208.189 620.992 215.956 629.172 226.205 638.713L228.931 635.785ZM201.932 610.893C196.353 606.559 190 603.319 183.209 601.343L182.091 605.184C188.399 607.019 194.298 610.028 199.478 614.052L201.932 610.893ZM183.306 601.375C178.45 599.688 173.436 598.567 168.595 597.45C163.713 596.324 158.995 595.199 154.516 593.5L153.097 597.24C157.865 599.048 162.835 600.226 167.696 601.348C172.598 602.479 177.383 603.551 181.994 605.153L183.306 601.375ZM154.648 593.555C150.054 591.425 145.953 588.373 142.602 584.59L139.608 587.242C143.325 591.438 147.873 594.822 152.965 597.184L154.648 593.555ZM142.602 584.59C139.251 580.807 136.722 576.375 135.174 571.573L131.367 572.801C133.085 578.129 135.891 583.046 139.608 587.242L142.602 584.59ZM135.174 571.573C133.625 566.772 133.091 561.703 133.603 556.686L129.624 556.28C129.055 561.848 129.648 567.473 131.367 572.801L135.174 571.573ZM133.603 556.686C134.115 551.669 135.665 546.812 138.153 542.418L134.672 540.447C131.912 545.321 130.193 550.711 129.624 556.28L133.603 556.686ZM137.735 542.933C139.688 541.21 141.993 539.928 144.491 539.178L143.342 535.347C140.29 536.263 137.475 537.828 135.089 539.933L137.735 542.933ZM144.491 539.178C146.99 538.429 149.623 538.228 152.208 538.589L152.762 534.628C149.607 534.186 146.393 534.432 143.342 535.347L144.491 539.178ZM152.164 538.582C164.828 540.645 176.845 545.581 187.286 553.007L189.604 549.748C178.664 541.966 166.073 536.795 152.807 534.635L152.164 538.582ZM187.286 553.007C197.726 560.434 206.31 570.151 212.375 581.409L215.897 579.512C209.54 567.713 200.544 557.529 189.604 549.748L187.286 553.007ZM212.401 581.455C222.167 598.49 226.744 617.987 225.572 637.567L229.565 637.806C230.784 617.447 226.025 597.176 215.871 579.465L212.401 581.455ZM1525.76 1565.56H1150.79V1569.56H1525.76V1565.56ZM43.9357 1565.56H-373.31V1569.56H43.9357V1565.56ZM817.656 1566H487.824V1570H817.656V1566Z" fill="white" mask="url(#path-1-inside-1_2836_2298)"/>
</g>
</svg>
