<svg width="42" height="31" viewBox="0 0 42 31" fill="none" xmlns="http://www.w3.org/2000/svg">
<path d="M41.5384 23.2295H41.5212L38.7197 8.70605C38.7197 8.68887 38.7197 8.68887 38.7025 8.67168C38.2718 6.29546 37.0209 4.14573 35.1677 2.59726C33.3146 1.04879 30.9768 0.19978 28.5619 0.198242L13.4369 0.249805C11.0106 0.24607 8.66105 1.09933 6.8026 2.65904C4.94415 4.21876 3.69625 6.38472 3.27905 8.7748V8.80918L0.47749 23.2123C0.334154 24.0127 0.35042 24.8335 0.525353 25.6275C0.700286 26.4216 1.03044 27.1732 1.49682 27.8393C1.96321 28.5053 2.55664 29.0726 3.243 29.5086C3.92936 29.9445 4.69511 30.2405 5.49624 30.3795C5.84722 30.4487 6.20414 30.4832 6.56187 30.4826C8.20295 30.4792 9.77698 29.831 10.9447 28.6779L11.0134 28.592L18.0087 20.8576L24.0072 20.8232L30.9853 28.6092L31.0712 28.6951C32.2305 29.8504 33.8003 30.4993 35.4369 30.4998C35.8002 30.4996 36.1628 30.465 36.5197 30.3967C38.1334 30.1074 39.5671 29.1912 40.5074 27.8483C41.4478 26.5054 41.8185 24.8448 41.5384 23.2295ZM16.8744 11.9373H15.4994V13.3123C15.4994 13.677 15.3545 14.0267 15.0966 14.2846C14.8388 14.5424 14.489 14.6873 14.1244 14.6873C13.7597 14.6873 13.41 14.5424 13.1521 14.2846C12.8942 14.0267 12.7494 13.677 12.7494 13.3123V11.9373H11.3744C11.0097 11.9373 10.66 11.7924 10.4021 11.5346C10.1442 11.2767 9.99936 10.927 9.99936 10.5623C9.99936 10.1976 10.1442 9.8479 10.4021 9.59003C10.66 9.33217 11.0097 9.1873 11.3744 9.1873H12.7494V7.8123C12.7494 7.44763 12.8942 7.0979 13.1521 6.84003C13.41 6.58217 13.7597 6.4373 14.1244 6.4373C14.489 6.4373 14.8388 6.58217 15.0966 6.84003C15.3545 7.0979 15.4994 7.44763 15.4994 7.8123V9.1873H16.8744C17.239 9.1873 17.5888 9.33217 17.8466 9.59003C18.1045 9.8479 18.2494 10.1976 18.2494 10.5623C18.2494 10.927 18.1045 11.2767 17.8466 11.5346C17.5888 11.7924 17.239 11.9373 16.8744 11.9373ZM23.7494 10.5623C23.7494 10.1976 23.8942 9.8479 24.1521 9.59003C24.41 9.33217 24.7597 9.1873 25.1244 9.1873L30.6244 9.1873C30.989 9.1873 31.3388 9.33217 31.5966 9.59003C31.8545 9.8479 31.9994 10.1976 31.9994 10.5623C31.9994 10.927 31.8545 11.2767 31.5966 11.5346C31.3388 11.7924 30.989 11.9373 30.6244 11.9373L25.1244 11.9373C24.7597 11.9373 24.41 11.7924 24.1521 11.5346C23.8942 11.2767 23.7494 10.927 23.7494 10.5623ZM36.0384 27.6982C35.4994 27.7928 34.9456 27.758 34.4227 27.5967C33.8997 27.4353 33.4226 27.152 33.0306 26.7701L27.6853 20.8404H28.5619C30.316 20.8421 32.0416 20.3963 33.5755 19.5452C35.1093 18.694 36.4007 17.4657 37.3275 15.9764L38.8228 23.7451C38.9728 24.6379 38.7645 25.5538 38.2431 26.294C37.7218 27.0341 36.9296 27.5387 36.0384 27.6982Z" fill="white"/>
</svg>
