<svg width="38" height="36" viewBox="0 0 38 36" fill="none" xmlns="http://www.w3.org/2000/svg">
<path d="M37.9299 16.6253C37.9299 14.4372 37.0607 12.3388 35.5136 10.7916C33.9664 9.24448 31.868 8.37528 29.6799 8.37528H22.8049C22.719 8.37528 13.7987 8.25497 5.32524 1.13934C4.92358 0.800365 4.43269 0.584403 3.91141 0.517337C3.39012 0.450271 2.86056 0.534947 2.38617 0.761218C1.90904 0.978173 1.50542 1.32939 1.22462 1.77196C0.943812 2.21454 0.797977 2.72931 0.804925 3.25341L0.804925 29.9972C0.797977 30.5213 0.943812 31.036 1.22462 31.4786C1.50542 31.9212 1.90904 32.2724 2.38617 32.4893C2.75281 32.658 3.15138 32.7459 3.55492 32.7472C4.20169 32.7514 4.82898 32.526 5.32524 32.1112C11.8393 26.6456 18.594 25.305 21.4299 24.9784V31.0112C21.4283 31.4635 21.5389 31.9091 21.7519 32.308C21.9649 32.707 22.2736 33.0469 22.6502 33.2972L24.5409 34.569C24.9131 34.8046 25.3343 34.9518 25.7723 34.9995C26.2102 35.0471 26.6532 34.994 27.0674 34.844C27.4787 34.6842 27.8451 34.4272 28.1355 34.095C28.4258 33.7628 28.6314 33.3652 28.7346 32.9362L30.7799 24.8065C32.7574 24.5332 34.5698 23.5549 35.8835 22.0518C37.1972 20.5486 37.9239 18.6216 37.9299 16.6253ZM26.0705 32.2659L24.1799 31.0112V24.8753H27.9268L26.0705 32.2659ZM29.6799 22.1253H24.1799L24.1799 11.1253L29.6799 11.1253C31.1386 11.1253 32.5376 11.7047 33.569 12.7362C34.6005 13.7676 35.1799 15.1666 35.1799 16.6253C35.1799 18.084 34.6005 19.4829 33.569 20.5144C32.5376 21.5458 31.1386 22.1253 29.6799 22.1253Z" fill="white"/>
</svg>
