<svg width="34" height="39" viewBox="0 0 34 39" fill="none" xmlns="http://www.w3.org/2000/svg">
<path d="M21.1255 37.4999C21.1255 37.8645 20.9807 38.2143 20.7228 38.4721C20.465 38.73 20.1152 38.8749 19.7505 38.8749H14.2505C13.8859 38.8749 13.5361 38.73 13.2783 38.4721C13.0204 38.2143 12.8755 37.8645 12.8755 37.4999C12.8755 37.1352 13.0204 36.7855 13.2783 36.5276C13.5361 36.2697 13.8859 36.1249 14.2505 36.1249H19.7505C20.1152 36.1249 20.465 36.2697 20.7228 36.5276C20.9807 36.7855 21.1255 37.1352 21.1255 37.4999ZM33.3287 26.0874L31.1974 35.6436C31.0972 36.0995 30.8818 36.522 30.5719 36.871C30.262 37.2201 29.8679 37.4839 29.4271 37.6374C29.1281 37.7387 28.8147 37.791 28.499 37.7921C27.8803 37.7887 27.2808 37.5767 26.7974 37.1905L22.0193 33.3749H11.9818L7.20367 37.1905C6.72031 37.5767 6.12082 37.7887 5.50211 37.7921C5.18641 37.791 4.87297 37.7387 4.57399 37.6374C4.13321 37.4839 3.73908 37.2201 3.42918 36.871C3.11929 36.522 2.90394 36.0995 2.80368 35.6436L0.672425 26.0874C0.584577 25.6763 0.591545 25.2506 0.6928 24.8426C0.794056 24.4346 0.986937 24.055 1.2568 23.7327L6.3443 17.6139C6.49581 15.5101 6.9652 13.4413 7.73649 11.478C9.74743 6.28737 13.3224 2.88425 15.2818 1.32019C15.7702 0.929129 16.3779 0.717487 17.0036 0.720615C17.6292 0.723743 18.2349 0.941453 18.7193 1.33738C20.6615 2.90144 24.1849 6.30456 26.1787 11.4952C26.9216 13.4186 27.3846 15.4387 27.5537 17.4936L32.7443 23.7327C33.0142 24.055 33.207 24.4346 33.3083 24.8426C33.4096 25.2506 33.4165 25.6763 33.3287 26.0874ZM9.73024 31.6561C7.94274 28.2874 6.84847 24.9988 6.44742 21.7905L3.37086 25.4858L5.48492 35.0421L9.73024 31.6561ZM19.063 15.4999C19.063 15.092 18.9421 14.6932 18.7155 14.354C18.4888 14.0148 18.1667 13.7505 17.7898 13.5944C17.413 13.4383 16.9983 13.3974 16.5982 13.477C16.1981 13.5566 15.8306 13.753 15.5421 14.0415C15.2537 14.3299 15.0573 14.6974 14.9777 15.0975C14.8981 15.4976 14.9389 15.9123 15.095 16.2892C15.2512 16.666 15.5155 16.9882 15.8547 17.2148C16.1939 17.4414 16.5926 17.5624 17.0005 17.5624C17.5476 17.5624 18.0722 17.3451 18.459 16.9583C18.8457 16.5715 19.063 16.0469 19.063 15.4999ZM30.6302 25.4858L27.4849 21.7046C27.1068 24.9358 26.0412 28.253 24.2537 31.6389L28.5162 35.0421L30.6302 25.4858Z" fill="white"/>
</svg>
