<?xml version="1.0" encoding="utf-8"?>
<!-- Generator: Adobe Illustrator 27.8.1, SVG Export Plug-In . SVG Version: 6.00 Build 0)  -->
<svg version="1.1" id="Capa_1" xmlns="http://www.w3.org/2000/svg" xmlns:xlink="http://www.w3.org/1999/xlink" x="0px" y="0px"
	 viewBox="0 0 139 43" style="enable-background:new 0 0 139 43;" xml:space="preserve">
<style type="text/css">
	.st0{fill:#FFFFFF;}
</style>
<path class="st0" d="M13.8,23.3c-4.5-3.1-7.4-7.1-8-12.5c0,0,0,0,0,0.2v0.2c0.8,2.3,2,4.3,4,5.9c1.2,1.1,2.6,1.5,4.2,1.5
	c0.3,0,0.6,0,0.9,0c0.5,0,0.9,0.2,1.2,0.6c0.6,0.6,1.4,1.1,2.2,1.5c0.8,0.5,1.5,0.6,2.3,0.5c0.5,0,0.8-0.2,0.9-0.6c0,0,0,0,0.2-0.2
	c0.8-0.3,1.1-0.6,0.9-1.4c-0.2-0.6-0.3-1.2-0.6-1.8c-0.3-0.5-0.5-1.1-0.5-1.5c0-0.3,0-0.6,0.2-0.8c0.2-0.8,0.2-1.5,0.3-2.2
	c0-0.5,0-0.8-0.2-1.2c-0.5-0.3-0.6-0.6-0.8-0.9c-0.2-0.3-0.2-0.6-0.2-0.9c0.2-0.6,0.2-1.4,0-2c-0.2-0.8-0.8-1.1-1.5-1.1
	c-0.5,0-1.1,0-1.5,0.2c-0.5,0-0.8,0-1.1-0.3c-0.6-0.6-1.1-1.2-1.5-2c-1.1-2,0.3-3.5,1.7-4.2C17.8,0,18.7,0,19.8,0
	c1.8,0.2,3.5,0.8,5.2,1.4c1.4,0.5,2.8,0.9,4.2,1.2c0.8,0.2,1.4,0.2,2.2,0.3c2.8,0.5,5.5,0.9,8,2c3.5,1.5,6.2,4.2,7.9,7.5
	c1.1,2.2,1.8,4.3,2.2,6.8c0.5,2.3,0.6,4.8,0.5,7.1c0,1.4-0.2,2.6-0.3,4c-0.2,2.2-0.6,4.3-1.2,6.3c0,0.2,0,0.2-0.2,0.2
	c-2.9,0-5.9,0-8.6,0h-0.2c0.2-0.6,0.3-1.1,0.6-1.5c0.5-0.6,1.2-1.1,1.8-1.5c0.3-0.2,0.8-0.5,1.2-0.6c0,0,0,0,0-0.2
	c-0.9-1.8-2-3.4-3.5-4.6c-0.9-0.8-2-1.1-3.1-1.5C35,26.3,33.5,26,32,25.7c-2.3-0.3-4.8-0.5-7.2-0.5c0,0,0,0-0.2,0
	c0-0.2,0.2-0.2,0.2-0.2c1.5-1.5,2.9-3.4,3.8-5.2c0.5-0.8,0.8-1.5,0.9-2.3c0.3-1.1,0.2-2,0-3.1c-0.2-0.8-0.5-1.5-0.9-2.2
	c0,0,0-0.2-0.2-0.2c0.2,0.6,0.2,1.4,0.3,2c0,1.7-0.5,3.2-1.2,4.6c-1.5,2.5-3.4,4.9-5.2,7.2c-2.9,3.7-5.9,7.2-8.9,10.6
	c0,0-0.2,0.2-0.3,0.2c-3.2,0-6.5,0-9.7,0c0,0,0,0-0.2,0c0-0.5,0.2-1.1,0.3-1.5c0.3-0.5,0.6-0.8,1.1-1.1c0.8-0.5,1.5-0.8,2.5-0.8
	c0.2,0,0.3,0,0.5,0c0.2,0,0.2-0.2,0.2-0.2c0.8-1.4,1.5-2.8,2.3-4.2c1.1-1.8,2.2-3.8,3.2-5.7C13.6,23.4,13.8,23.4,13.8,23.3z"/>
<path class="st0" d="M5.5,13.1c0.2,0.6,0.3,1.1,0.5,1.5c0.6,2.2,1.8,4,3.4,5.7c0.3,0.3,0.5,0.6,0.8,0.8c0.2,0.2,0.2,0.2,0,0.3
	c-0.9,1.4-2,2.8-3.2,4c-0.5,0.5-0.6,0.9-0.6,1.4c0,0.8,0.2,1.5,0.3,2.3c0,0.5,0.2,1.1,0.2,1.5c0,0.5-0.2,0.8-0.6,1.1
	c-0.9,0.5-1.8,0.5-2.6,0c-1.4-0.8-2.2-1.8-2.6-3.2c-0.5-1.5-0.3-3.1,0-4.6c0.3-1.5,0.8-3.1,1.4-4.5c0.3-0.6,0.8-1.2,1.1-2
	c0.5-0.8,0.8-1.5,1.2-2.2C4.7,14.5,5,13.9,5.5,13.1z"/>
<path class="st0" d="M23.8,37.1c0.2-1.2,0.8-2.2,1.8-2.6c0.5-0.2,1.1-0.3,1.5-0.5c0,0,0.2,0,0.2-0.2c0.5-1.4,0.9-2.8,1.1-4.2
	c0-0.6,0-1.4,0-2c0-0.2,0-0.2,0-0.3c2.8,0,5.5,0.2,8.2,1.5c-0.3,0.8-0.5,1.4-0.8,2.2c-0.8,1.7-1.8,3.2-2.9,4.8
	c-0.3,0.5-0.6,0.8-0.9,1.2l-0.2,0.2C29,37.1,26.4,37.1,23.8,37.1z"/>
<path class="st0" d="M14.6,8c-0.3,0-0.6,0.2-0.9,0.2c-1.1,0.3-1.8,0.9-2.2,1.8c-0.2,0.3-0.3,0.8-0.3,1.1c-0.3-0.8-0.6-1.5-0.8-2.3
	c-0.2-0.8,0.2-1.5,0.9-1.7c0.3,0,0.6,0,0.9,0c0.3,0,0.8,0.3,1.1,0.3C13.6,7.7,14.1,7.9,14.6,8z"/>
<path class="st0" d="M17.7,15.1c-0.3-0.2-0.5-0.5-0.6-0.6c-0.2-0.2-0.3-0.2-0.5-0.2c-0.2,0-0.5-0.2-0.6-0.2
	c-0.5-0.2-0.8-0.9-0.5-1.2c0-0.2,0.3-0.2,0.3-0.2c0.6,0.2,1.1,0.5,1.4,1.1C17.7,14.2,17.7,14.5,17.7,15.1z"/>
<g>
	<path class="st0" d="M61.5,18.5L57,5.5h3.3l3.3,9.9l-1.1,0l3.5-9.9h2.8l3.5,9.9l-1.1,0l3.3-9.9h3.3l-4.5,13h-2.8L66.8,8.2h1.1
		l-3.6,10.3H61.5z"/>
	<path class="st0" d="M79.3,18.5V0.4h3.1v11.9l-1.2-0.4l6.1-6.4h3.9l-4.8,5.2l4.9,7.8h-3.6l-4.3-6.7l1.9-0.4l-3.9,4.2l1-1.9v4.8
		H79.3z"/>
	<path class="st0" d="M100.2,18.8c-0.9,0-1.8-0.2-2.6-0.6c-0.8-0.4-1.4-0.9-1.9-1.6l0.3-0.6v2.5h-2.9V0.4h3.1V8l-0.5-0.6
		c0.4-0.7,1.1-1.2,1.8-1.6c0.8-0.4,1.7-0.6,2.7-0.6c1.2,0,2.3,0.3,3.3,0.9c1,0.6,1.8,1.4,2.3,2.4c0.6,1,0.9,2.2,0.9,3.4
		c0,1.3-0.3,2.4-0.9,3.4c-0.6,1-1.4,1.9-2.3,2.5C102.6,18.5,101.5,18.8,100.2,18.8z M99.9,15.9c0.7,0,1.4-0.2,1.9-0.5
		c0.6-0.3,1-0.8,1.3-1.4c0.3-0.6,0.5-1.3,0.5-2c0-0.8-0.2-1.4-0.5-2c-0.3-0.6-0.7-1.1-1.3-1.4c-0.6-0.4-1.2-0.5-1.9-0.5
		c-0.7,0-1.3,0.2-1.9,0.5c-0.5,0.3-1,0.8-1.3,1.4c-0.3,0.6-0.5,1.3-0.5,2c0,0.8,0.2,1.4,0.5,2c0.3,0.6,0.7,1.1,1.3,1.4
		C98.6,15.7,99.2,15.9,99.9,15.9z"/>
	<path class="st0" d="M64.5,42.6c-1,0-1.9-0.2-2.7-0.5s-1.5-0.8-2.2-1.3c-0.6-0.6-1-1.2-1.3-2l2.9-1.1c0.2,0.6,0.6,1.1,1.1,1.5
		c0.6,0.4,1.3,0.6,2.1,0.6c0.6,0,1.2-0.1,1.7-0.4c0.5-0.2,0.9-0.6,1.1-1.1c0.3-0.4,0.4-1,0.4-1.6v-3l0.6,0.7c-0.4,0.8-1,1.4-1.8,1.8
		c-0.7,0.4-1.6,0.6-2.6,0.6c-1.2,0-2.3-0.3-3.3-0.8c-1-0.6-1.7-1.3-2.2-2.3c-0.5-1-0.8-2.1-0.8-3.3c0-1.2,0.3-2.3,0.8-3.3
		c0.5-1,1.3-1.7,2.2-2.2c0.9-0.6,2-0.8,3.2-0.8c1,0,1.8,0.2,2.6,0.6c0.7,0.4,1.4,1,1.9,1.7l-0.4,0.8v-2.9h3v12.4
		c0,1.1-0.3,2.1-0.8,3c-0.5,0.9-1.3,1.6-2.2,2.1C66.8,42.4,65.8,42.6,64.5,42.6z M64.4,34c0.7,0,1.3-0.1,1.7-0.4
		c0.5-0.3,0.9-0.7,1.2-1.2c0.3-0.5,0.4-1.1,0.4-1.8c0-0.7-0.2-1.3-0.5-1.8c-0.3-0.5-0.7-1-1.2-1.3c-0.5-0.3-1.1-0.5-1.7-0.5
		c-0.7,0-1.2,0.2-1.8,0.5c-0.5,0.3-0.9,0.7-1.2,1.3c-0.3,0.5-0.4,1.1-0.4,1.8c0,0.7,0.1,1.3,0.4,1.8c0.3,0.5,0.7,0.9,1.2,1.2
		C63.1,33.8,63.7,34,64.4,34z"/>
	<path class="st0" d="M73.8,37.4v-13h2.9v2.9l-0.2-0.4c0.3-1,0.8-1.7,1.4-2c0.7-0.4,1.4-0.6,2.3-0.6H81V27h-1.1
		c-0.9,0-1.6,0.3-2.2,0.8c-0.5,0.5-0.8,1.3-0.8,2.3v7.2H73.8z"/>
	<path class="st0" d="M89.1,37.7c-1.3,0-2.4-0.3-3.5-0.9c-1-0.6-1.9-1.4-2.5-2.4c-0.6-1-0.9-2.2-0.9-3.5s0.3-2.5,0.9-3.5
		c0.6-1,1.5-1.8,2.5-2.4c1-0.6,2.2-0.9,3.5-0.9c1.3,0,2.4,0.3,3.5,0.9c1,0.6,1.9,1.4,2.5,2.4c0.6,1,0.9,2.2,0.9,3.5
		c0,1.3-0.3,2.5-0.9,3.5c-0.6,1-1.5,1.8-2.5,2.4C91.5,37.4,90.4,37.7,89.1,37.7z M89.1,34.8c0.7,0,1.3-0.2,1.8-0.5
		c0.5-0.3,1-0.8,1.3-1.4c0.3-0.6,0.5-1.3,0.5-2c0-0.8-0.2-1.4-0.5-2c-0.3-0.6-0.7-1.1-1.3-1.4c-0.5-0.4-1.1-0.5-1.8-0.5
		c-0.7,0-1.3,0.2-1.9,0.5c-0.5,0.3-1,0.8-1.3,1.4c-0.3,0.6-0.5,1.2-0.5,2c0,0.7,0.2,1.4,0.5,2c0.3,0.6,0.7,1.1,1.3,1.4
		C87.8,34.6,88.4,34.8,89.1,34.8z"/>
	<path class="st0" d="M103,37.7c-1,0-1.9-0.2-2.6-0.7c-0.7-0.4-1.3-1.1-1.7-1.9c-0.4-0.8-0.6-1.7-0.6-2.8v-8h3.1v7.7
		c0,0.5,0.1,1,0.3,1.4c0.2,0.4,0.5,0.7,0.9,1c0.4,0.2,0.9,0.3,1.4,0.3s1-0.1,1.4-0.3c0.4-0.2,0.7-0.6,0.9-1c0.2-0.4,0.3-0.9,0.3-1.5
		v-7.6h3.1v13h-3v-2.6l0.3,0.5c-0.3,0.8-0.8,1.4-1.5,1.8C104.7,37.5,103.9,37.7,103,37.7z"/>
	<path class="st0" d="M112.5,42.2V24.4h2.9v2.6l-0.3-0.6c0.4-0.7,1.1-1.2,1.8-1.6c0.8-0.4,1.7-0.6,2.7-0.6c1.2,0,2.3,0.3,3.3,0.9
		c1,0.6,1.8,1.4,2.3,2.4c0.6,1,0.9,2.2,0.9,3.4c0,1.3-0.3,2.4-0.9,3.4c-0.6,1-1.4,1.9-2.3,2.5c-1,0.6-2.1,0.9-3.4,0.9
		c-0.9,0-1.8-0.2-2.6-0.5c-0.8-0.4-1.4-0.9-1.9-1.6l0.5-0.6v7.3H112.5z M119.3,34.8c0.7,0,1.4-0.2,1.9-0.5c0.6-0.3,1-0.8,1.3-1.4
		c0.3-0.6,0.5-1.3,0.5-2c0-0.8-0.2-1.4-0.5-2c-0.3-0.6-0.7-1.1-1.3-1.4c-0.6-0.4-1.2-0.5-1.9-0.5c-0.7,0-1.3,0.2-1.9,0.5
		c-0.5,0.3-1,0.8-1.3,1.4c-0.3,0.6-0.5,1.3-0.5,2c0,0.8,0.2,1.4,0.5,2c0.3,0.6,0.7,1.1,1.3,1.4C118,34.6,118.6,34.8,119.3,34.8z"/>
	<circle class="st0" cx="110.5" cy="16.4" r="2"/>
</g>
</svg>
